<svg id="Layer_1" data-name="Layer 1" xmlns="http://www.w3.org/2000/svg" xmlns:xlink="http://www.w3.org/1999/xlink" viewBox="0 0 160.88 156.97"><defs><style>.cls-1{fill:none;}.cls-2{fill:#231f20;}.cls-3{clip-path:url(#clip-path);}.cls-4{fill:#f3ba6b;}.cls-5{fill:#d29953;}.cls-6{fill:#120e0b;}.cls-7{fill:#c2b59b;}.cls-8{fill:#aa9c83;}.cls-9{fill:#4c3325;}.cls-10{fill:#3c2215;}.cls-11{fill:#fff;}</style><clipPath id="clip-path"><rect class="cls-1" x="13.45" y="-7.25" width="133.97" height="106.42"/></clipPath></defs><path class="cls-2" d="M25.11,130.39a1.12,1.12,0,0,1,.31.83c0,.61.17.59.17,1.2s-.21.61-.21,1.23.14.61.14,1.22-.1.61-.1,1.22A1.94,1.94,0,0,1,25,137.5c-.31.31-.72.12-.72.56s.32.35.63.66a1.9,1.9,0,0,1,.63,1.31c0,.5-.15.5-.15,1s.1.5.1,1,.08.5.08,1a1.2,1.2,0,0,1-.46.8,1.13,1.13,0,0,1-.8.38c-.59,0-.59.08-1.18.08s-.59-.1-1.19-.1H20.74a1.05,1.05,0,0,1-.76-.39c-.22-.21-.51-.44-.51-.76,0-.59.15-.59.15-1.19s-.05-.59-.05-1.18,0-.59,0-1.19,0-.59,0-1.18.08-.59.08-1.18-.18-.6-.18-1.19,0-.59,0-1.18.06-.59.06-1.19.08-.59.08-1.18-.07-.57-.07-1.16a1.15,1.15,0,0,1,.33-.82,1.11,1.11,0,0,1,.82-.28c.59,0,.59-.18,1.18-.18s.6.09,1.19.09.59,0,1.18,0A1.13,1.13,0,0,1,25.11,130.39Zm-2.59,2A.56.56,0,0,0,22,133c0,.55,0,.55,0,1.11s-.06.55-.06,1.1-.08.55-.08,1.11a.72.72,0,0,0,.7.62.65.65,0,0,0,.62-.62c0-.56.05-.56.05-1.11s-.18-.55-.18-1.1.1-.56.1-1.11a.62.62,0,0,0-.59-.62Zm.62,8.91v-1.42a.7.7,0,0,0-.62-.68c-.33,0-.5.35-.5.68,0,.71-.09.71-.09,1.42a.61.61,0,0,0,.59.62A.64.64,0,0,0,23.14,141.26Z"/><path class="cls-2" d="M29.09,141.24a.57.57,0,0,0,.52.63c.33,0,.49-.28.49-.61,0-.53.13-.53.13-1.06s0-.54,0-1.07c0-.33.27-.49.59-.49H32c.32,0,.6.17.6.5,0,.65-.1.65-.1,1.3s.11.65.11,1.31-.11.65-.11,1.3a1,1,0,0,1-.33.76,1.09,1.09,0,0,1-.77.39c-.59,0-.59.15-1.18.15s-.59-.08-1.18-.08-.6-.11-1.19-.11a1.22,1.22,0,0,1-.9-.21,1.33,1.33,0,0,1-.39-.9c0-.57.08-.57.08-1.13s.08-.57.08-1.13v-1.13c0-.57-.1-.57-.1-1.13s-.05-.57-.05-1.13.16-.57.16-1.13,0-.57,0-1.13-.07-.57-.07-1.14v-1.12c0-.57.05-.57.05-1.14s-.1-.56-.1-1.13a.73.73,0,0,1,.64-.69c.59,0,.59,0,1.18,0a.65.65,0,0,1,.6.65c0,.59,0,.59,0,1.18s.1.6.1,1.19,0,.59,0,1.18-.07.59-.07,1.18.09.59.09,1.18-.18.59-.18,1.19.08.59.08,1.18-.08.59-.06,1.18.12.59.12,1.18Z"/><path class="cls-2" d="M38.47,130.09a1,1,0,0,1,.8.3,1.24,1.24,0,0,1,.49.81c0,.56,0,.56,0,1.13s-.13.56-.13,1.13.16.56.16,1.13-.14.56-.14,1.13.09.56.09,1.13.07.56.07,1.13-.13.56-.13,1.13-.1.56-.1,1.13.19.56.19,1.13-.15.56-.15,1.13.15.56.15,1.13a.69.69,0,0,1-.67.63c-.59,0-.59,0-1.18,0a.57.57,0,0,1-.58-.58c0-.63-.12-.63-.12-1.26s.1-.63.1-1.27,0-.63,0-1.26a.53.53,0,0,0-.61-.51c-.32,0-.69.2-.69.53,0,.63.17.63.17,1.26v1.25c0,.63,0,.63,0,1.26a.73.73,0,0,1-.68.65c-.59,0-.59-.1-1.19-.1a.53.53,0,0,1-.56-.55c0-.57.05-.57.05-1.13s0-.57,0-1.13-.11-.57-.11-1.13v-1.13c0-.57,0-.57,0-1.13s0-.57,0-1.13.11-.57.11-1.13.09-.57.09-1.13-.1-.57-.1-1.13,0-.57,0-1.13.06-.57.06-1.13a1.23,1.23,0,0,1,.25-.9,1.3,1.3,0,0,1,.9-.35l1.18,0c.59,0,.59.17,1.18.17Zm-1.11,6.2c0-.55,0-.55-.06-1.11s.1-.55.1-1.1-.11-.56-.11-1.11a.57.57,0,0,0-.6-.56.6.6,0,0,0-.63.56c0,.55.12.55.12,1.11s0,.55,0,1.1,0,.55,0,1.11c0,.32.18.68.51.68a.75.75,0,0,0,.67-.68Z"/><path class="cls-2" d="M43.87,132.38a.66.66,0,0,0-.67.59c0,.59,0,.59,0,1.19s.09.59.09,1.18-.05.59-.05,1.18.15.6.15,1.19,0,.59,0,1.18-.07.59-.07,1.19,0,.59,0,1.18a.58.58,0,0,0,.57.6.69.69,0,0,0,.69-.6c0-.5-.13-.5-.13-1s.07-.5.07-1,0-.5,0-1a.55.55,0,0,1,.56-.57c.59,0,.59.07,1.19.07a.45.45,0,0,1,.5.5c0,.59.16.59.16,1.19s-.15.59-.15,1.19.18.59.18,1.19-.07.59-.07,1.19a1.14,1.14,0,0,1-.46.75,1,1,0,0,1-.76.39c-.59,0-.59,0-1.18,0s-.59,0-1.18,0H42.09a1.17,1.17,0,0,1-.84-.29A1.19,1.19,0,0,1,41,143c0-.6-.06-.6-.06-1.19s.11-.59.11-1.18-.16-.59-.16-1.19.15-.59.15-1.18,0-.59,0-1.18-.23-.6-.23-1.19.13-.59.13-1.18,0-.59,0-1.19-.11-.59-.11-1.18,0-.59,0-1.18a1.88,1.88,0,0,1,1.25-1.26c.59,0,.59.15,1.19.15s.59,0,1.18,0,.59-.14,1.18-.14a1.27,1.27,0,0,1,.9.32,1.23,1.23,0,0,1,.25.9v1.17c0,.59.15.59.15,1.18s-.2.59-.2,1.18.15.59.15,1.18a.69.69,0,0,1-.65.64c-.6,0-.6-.06-1.19-.06a.57.57,0,0,1-.57-.58c0-.49-.09-.49-.09-1s.09-.49.09-1v-1a.6.6,0,0,0-.61-.59Z"/><path class="cls-2" d="M53.9,136.09a2,2,0,0,1-.4,1.41c-.32.31-.62.12-.62.56s.31.25.63.56A2,2,0,0,1,54,140c0,.6,0,.6,0,1.2s.13.6.13,1.2,0,.6,0,1.2a.64.64,0,0,1-.67.57H52.21a.59.59,0,0,1-.62-.56c0-.63-.08-.63-.08-1.26s.14-.64.14-1.27-.14-.63-.14-1.26c0-.33-.15-.59-.48-.59a.63.63,0,0,0-.64.59c0,.63,0,.63,0,1.26s.07.63.07,1.27v1.26a.65.65,0,0,1-.64.61c-.6,0-.6-.06-1.19-.06a.62.62,0,0,1-.66-.55c0-.59.19-.59.19-1.19s-.08-.59-.08-1.18,0-.59,0-1.18-.16-.6-.16-1.19.14-.59.14-1.18-.09-.59-.09-1.19,0-.59,0-1.18.09-.59.09-1.18.09-.6.09-1.19,0-.59,0-1.18,0-.6,0-1.19a.58.58,0,0,1,.52-.64c.59,0,.59,0,1.19,0a.68.68,0,0,1,.6.67c0,.57,0,.57,0,1.14s.08.57.08,1.14-.1.57-.1,1.13-.06.57-.06,1.14.22.57.22,1.14c0,.32.15.54.48.54a.6.6,0,0,0,.64-.54c0-.57-.14-.57-.14-1.14s.1-.57.1-1.14,0-.56,0-1.13.08-.57.08-1.14,0-.57,0-1.14a.54.54,0,0,1,.5-.6c.6,0,.6-.09,1.19-.09.33,0,.49.37.49.69,0,.55,0,.55,0,1.1s0,.55,0,1.1-.05.55-.05,1.1.07.55.07,1.1-.08.55-.08,1.09Z"/><path class="cls-2" d="M62.15,141.24a.57.57,0,0,0,.52.63c.33,0,.49-.28.49-.61,0-.53.13-.53.13-1.06s0-.54,0-1.07c0-.33.27-.49.59-.49h1.19c.32,0,.6.17.6.5,0,.65-.1.65-.1,1.3s.11.65.11,1.31-.11.65-.11,1.3a1,1,0,0,1-.33.76,1.09,1.09,0,0,1-.77.39c-.59,0-.59.15-1.18.15s-.59-.08-1.18-.08-.6-.11-1.19-.11a1.22,1.22,0,0,1-.9-.21,1.33,1.33,0,0,1-.39-.9c0-.57.08-.57.08-1.13s.08-.57.08-1.13v-1.13c0-.57-.1-.57-.1-1.13s-.05-.57-.05-1.13.16-.57.16-1.13,0-.57,0-1.13-.07-.57-.07-1.14v-1.12c0-.57.05-.57.05-1.14s-.1-.56-.1-1.13a.73.73,0,0,1,.64-.69c.59,0,.59,0,1.18,0a.65.65,0,0,1,.6.65c0,.59,0,.59,0,1.18s.1.6.1,1.19,0,.59,0,1.18-.07.59-.07,1.18.09.59.09,1.18-.18.59-.18,1.19.08.59.08,1.18-.08.59-.06,1.18.12.59.12,1.18Z"/><path class="cls-2" d="M68.56,130.06c.33,0,.48.22.48.54,0,.6,0,.6,0,1.19s.06.59.06,1.18.08.59.08,1.19,0,.59,0,1.18,0,.59,0,1.18,0,.6,0,1.19-.09.59-.09,1.18,0,.6,0,1.19,0,.59,0,1.18.09.59.09,1.19-.11.59-.11,1.18c0,.33-.16.57-.49.57-.59,0-.59.06-1.18.06a.6.6,0,0,1-.57-.63c0-.59-.11-.59-.11-1.19s.17-.59.17-1.18-.17-.59-.17-1.18.11-.6.11-1.19,0-.59,0-1.18-.13-.59-.13-1.19.13-.59.13-1.18-.07-.59-.07-1.18,0-.6,0-1.19,0-.59,0-1.18-.09-.59-.09-1.19a.62.62,0,0,1,.64-.57c.59,0,.59,0,1.18,0Z"/><path class="cls-2" d="M76.52,130a.62.62,0,0,1,.62.66c0,.54-.1.53-.16,1.08s0,.55,0,1.09-.07.54-.12,1.08,0,.55-.06,1.09-.23.53-.28,1.07,0,.56,0,1.1-.14.53-.2,1.07-.07.54-.13,1.09,0,.54-.08,1.09.09.55,0,1.1-.16.53-.22,1.07-.12.54-.18,1.08c0,.3-.17.66-.48.66-.48,0-.48-.09-1-.09s-.49,0-1,0h-1a.66.66,0,0,1-.59-.6c-.06-.54-.14-.53-.2-1.08s-.08-.54-.13-1.08,0-.55,0-1.09,0-.55-.06-1.09,0-.55-.07-1.09-.16-.53-.22-1.08.12-.56.06-1.1-.17-.53-.22-1.07,0-.56,0-1.1-.07-.54-.12-1.08,0-.55-.08-1.09-.26-.52-.32-1.07A.68.68,0,0,1,71,130c.59,0,.59.1,1.18.1.31,0,.46.13.48.44,0,.56.18.55.23,1.11s0,.57,0,1.13.09.55.14,1.11,0,.57,0,1.13.08.56.13,1.12,0,.56.08,1.13.18.54.23,1.11-.09.57,0,1.13.22.54.27,1.1,0,.57,0,1.13a0,0,0,0,0,.09,0c0-.56,0-.56,0-1.12s.22-.55.27-1.11-.06-.57,0-1.13.07-.56.12-1.12,0-.57.08-1.13-.06-.57,0-1.13.12-.55.17-1.11.21-.55.25-1.11-.12-.58-.08-1.14.16-.55.22-1.11c0-.3.23-.62.53-.62.59,0,.59.08,1.19.08Z"/><path class="cls-2" d="M82.34,135.66a.5.5,0,0,1-.51-.56c0-.53-.12-.53-.12-1.06s0-.54,0-1.07c0-.33-.24-.49-.57-.49a.43.43,0,0,0-.49.49c0,.55-.08.55-.08,1.11s-.1.55-.1,1.1.1.55.1,1.11a.6.6,0,0,0,.57.62c.59,0,.59,0,1.19,0a.54.54,0,0,1,.59.53c0,.59.08.59.08,1.19a.75.75,0,0,1-.67.67c-.6,0-.6-.16-1.19-.16-.33,0-.49.34-.49.67,0,.71,0,.71,0,1.42,0,.33.21.48.54.48s.51-.15.51-.48c0-.12,0-.12,0-.24a.73.73,0,0,1,.7-.63c.59,0,.59,0,1.18,0a.67.67,0,0,1,.59.68c0,.51.06.51.06,1s0,.5,0,1c0,.32-.28.55-.49.76s-.44.48-.76.48c-.59,0-.59.05-1.19.05s-.59-.1-1.18-.1-.59-.12-1.18-.12a1.12,1.12,0,0,1-.83-.25,1.19,1.19,0,0,1-.36-.82c0-.59,0-.59,0-1.19s0-.59,0-1.18v-1.19c0-.59-.06-.59-.06-1.18s0-.59,0-1.18.14-.6.14-1.19,0-.59,0-1.18-.17-.59-.17-1.19.18-.59.18-1.18-.06-.59-.06-1.18a1.3,1.3,0,0,1,.24-.91,1.29,1.29,0,0,1,.91-.19c.59,0,.59-.2,1.18-.2l1.18,0c.6,0,.6.12,1.19.12a1.11,1.11,0,0,1,.8.36,1.23,1.23,0,0,1,.47.8c0,.65-.1.65-.1,1.3s0,.65,0,1.3,0,.65,0,1.3a.62.62,0,0,1-.54.67c-.59,0-.59-.11-1.18-.11Z"/><path class="cls-2" d="M89.41,135.58c-.33,0-.61-.15-.61-.48,0-.53,0-.53,0-1.06s-.08-.54-.08-1.07a.46.46,0,0,0-.5-.51.5.5,0,0,0-.56.51c0,.55-.12.55-.12,1.11s0,.55,0,1.1.13.56.13,1.11a.46.46,0,0,0,.5.52c.29,0,.29,0,.59,0a2.52,2.52,0,0,1,1.21.36A2.56,2.56,0,0,1,91,138a2.5,2.5,0,0,1,.13,1.23c0,.63.18.63.18,1.26s-.14.63-.14,1.26.12.64.12,1.27a1.31,1.31,0,0,1-.35.88,1.29,1.29,0,0,1-.89.28c-.59,0-.59.05-1.18.05s-.59,0-1.19,0-.59.07-1.18.07a1.33,1.33,0,0,1-.88-.37,1.25,1.25,0,0,1-.27-.88c0-.51-.09-.51-.09-1s.05-.5.05-1a.65.65,0,0,1,.6-.65c.59,0,.59.12,1.18.12a.58.58,0,0,1,.63.53c0,.12,0,.12,0,.24a.48.48,0,0,0,.52.53c.32,0,.68-.2.68-.53,0-.71-.08-.71-.08-1.42a.66.66,0,0,0-.6-.66c-.3,0-.3.07-.6.07A2.51,2.51,0,0,1,86.4,139a2.56,2.56,0,0,1-.83-.93,2.31,2.31,0,0,1-.28-1.2c0-.57-.08-.57-.08-1.14s.06-.57.06-1.13.06-.57.06-1.14,0-.57,0-1.14-.19-.57-.19-1.13a1.32,1.32,0,0,1,.47-.83,1.28,1.28,0,0,1,.82-.47c.59,0,.59.2,1.19.2s.59,0,1.18,0H90a1.32,1.32,0,0,1,.91.25,1.41,1.41,0,0,1,.37.91c0,.65,0,.65,0,1.3s-.15.65-.15,1.3.12.65.12,1.3c0,.33-.29.48-.61.48Z"/><path class="cls-2" d="M105.16,129.93a1.27,1.27,0,0,1,.83.43,1.12,1.12,0,0,1,.28.84c0,.56.06.56.06,1.13s-.09.56-.09,1.13.08.56.08,1.13.05.56.05,1.13.07.56.07,1.13-.17.56-.17,1.13.06.56.06,1.13.07.56.07,1.13,0,.56,0,1.13,0,.56,0,1.13-.06.57-.06,1.13a.51.51,0,0,1-.58.51c-.59,0-.59.19-1.18.19a.73.73,0,0,1-.64-.7v-1.18c0-.6,0-.6,0-1.19s0-.59,0-1.18,0-.6,0-1.19.08-.59.08-1.18-.06-.59-.06-1.19,0-.59,0-1.18,0-.59,0-1.18.08-.6.08-1.19c0-.32-.36-.53-.69-.53a.6.6,0,0,0-.65.53c0,.59.16.59.16,1.19s-.21.59-.21,1.18v1.19c0,.59.19.59.19,1.18s0,.59,0,1.18v1.19c0,.59-.15.59-.15,1.18s-.08.59-.08,1.19.2.59.2,1.18c0,.33-.36.51-.68.51H101c-.32,0-.7-.19-.7-.52v-1.18c0-.6.15-.6.15-1.19s-.15-.59-.15-1.18.2-.6.2-1.19-.05-.59-.05-1.18-.13-.59-.13-1.19.19-.59.19-1.18-.17-.59-.17-1.18V133a.55.55,0,0,0-.52-.61.63.63,0,0,0-.62.61v1.19c0,.59,0,.59,0,1.18s.16.59.16,1.19,0,.59,0,1.18,0,.59,0,1.18-.09.6-.09,1.19,0,.59,0,1.18-.06.59-.06,1.19.06.59.06,1.18a.58.58,0,0,1-.62.55c-.6,0-.6,0-1.19,0a.65.65,0,0,1-.65-.6c0-.57,0-.57,0-1.13s.1-.57.1-1.13,0-.57,0-1.13-.14-.57-.14-1.13,0-.57,0-1.13.07-.57.07-1.13,0-.57,0-1.13,0-.57,0-1.13-.14-.57-.14-1.13,0-.57,0-1.13.09-.57.09-1.13a1,1,0,0,1,.33-.78,1.13,1.13,0,0,1,.78-.42c.8,0,.8.06,1.59.06a1.88,1.88,0,0,1,1.36.49c.31.31.16.65.61.65s.3-.33.62-.64a1.91,1.91,0,0,1,1.35-.59c.79,0,.79,0,1.58,0Z"/><path class="cls-2" d="M112.23,130.09a1,1,0,0,1,.81.3,1.28,1.28,0,0,1,.49.81c0,.56,0,.56,0,1.13s-.12.56-.12,1.13.16.56.16,1.13-.15.56-.15,1.13.09.56.09,1.13.08.56.08,1.13-.13.56-.13,1.13-.11.56-.11,1.13.2.56.2,1.13-.15.56-.15,1.13.14.56.14,1.13a.69.69,0,0,1-.66.63c-.6,0-.6,0-1.19,0a.56.56,0,0,1-.57-.58c0-.63-.12-.63-.12-1.26s.09-.63.09-1.27,0-.63,0-1.26a.53.53,0,0,0-.6-.51c-.33,0-.69.2-.69.53,0,.63.17.63.17,1.26s0,.62,0,1.25,0,.63,0,1.26a.73.73,0,0,1-.69.65c-.59,0-.59-.1-1.18-.1a.53.53,0,0,1-.56-.55c0-.57,0-.57,0-1.13s0-.57,0-1.13-.12-.57-.12-1.13,0-.57,0-1.13,0-.57,0-1.13,0-.57,0-1.13.12-.57.12-1.13.09-.57.09-1.13-.11-.57-.11-1.13,0-.57,0-1.13.07-.57.07-1.13a1.28,1.28,0,0,1,.24-.9,1.31,1.31,0,0,1,.9-.35c.59,0,.59,0,1.19,0s.59.17,1.18.17Zm-1.1,6.2c0-.55,0-.55-.06-1.11s.09-.55.09-1.1-.1-.56-.1-1.11a.57.57,0,0,0-.6-.56.6.6,0,0,0-.63.56c0,.55.12.55.12,1.11s0,.55,0,1.1,0,.55,0,1.11c0,.32.19.68.52.68a.76.76,0,0,0,.67-.68Z"/><path class="cls-2" d="M119.66,130.06a.59.59,0,0,1,.63.54c0,.6,0,.6,0,1.19,0,.32-.26.48-.59.48s-.29.11-.59.11a.53.53,0,0,0-.52.59c0,.59,0,.59,0,1.19s0,.59,0,1.18.09.59.09,1.19-.19.59-.19,1.18.12.59.12,1.18,0,.6,0,1.19-.12.59-.12,1.18.18.59.18,1.19,0,.59,0,1.18c0,.33-.33.5-.65.5H116.7c-.32,0-.62-.17-.62-.5,0-.59,0-.59,0-1.18s.17-.6.17-1.19-.15-.59-.15-1.18.12-.6.12-1.19,0-.59,0-1.18,0-.59,0-1.19-.17-.59-.17-1.18.17-.59.17-1.18-.09-.6-.09-1.19a.64.64,0,0,0-.57-.67c-.3,0-.3.06-.59.06a.62.62,0,0,1-.64-.57c0-.59.11-.59.11-1.19a.49.49,0,0,1,.53-.53c.59,0,.59-.15,1.18-.15s.59.2,1.18.2h1.19c.59,0,.59-.06,1.18-.06Z"/><path class="cls-2" d="M126.63,130.06a.59.59,0,0,1,.63.54c0,.6,0,.6,0,1.19,0,.32-.26.48-.59.48s-.29.11-.59.11a.53.53,0,0,0-.52.59c0,.59,0,.59,0,1.19s0,.59,0,1.18.09.59.09,1.19-.19.59-.19,1.18.12.59.12,1.18,0,.6,0,1.19-.12.59-.12,1.18.18.59.18,1.19,0,.59,0,1.18c0,.33-.33.5-.65.5h-1.19c-.33,0-.62-.17-.62-.5,0-.59,0-.59,0-1.18s.18-.6.18-1.19-.15-.59-.15-1.18.12-.6.12-1.19,0-.59,0-1.18,0-.59,0-1.19-.17-.59-.17-1.18.17-.59.17-1.18-.09-.6-.09-1.19a.65.65,0,0,0-.57-.67c-.3,0-.3.06-.59.06a.62.62,0,0,1-.64-.57c0-.59.11-.59.11-1.19a.49.49,0,0,1,.53-.53c.59,0,.59-.15,1.18-.15s.59.2,1.18.2h1.19c.59,0,.59-.06,1.18-.06Z"/><path class="cls-2" d="M132.25,135.66a.5.5,0,0,1-.51-.56c0-.53-.12-.53-.12-1.06s0-.54,0-1.07c0-.33-.24-.49-.57-.49a.43.43,0,0,0-.49.49c0,.55-.08.55-.08,1.11s-.1.55-.1,1.1.1.55.1,1.11a.6.6,0,0,0,.57.62c.59,0,.59,0,1.19,0a.54.54,0,0,1,.59.53c0,.59.08.59.08,1.19a.75.75,0,0,1-.67.67c-.6,0-.6-.16-1.19-.16-.33,0-.49.34-.49.67,0,.71,0,.71,0,1.42,0,.33.21.48.54.48s.51-.15.51-.48c0-.12,0-.12,0-.24a.73.73,0,0,1,.7-.63c.59,0,.59,0,1.18,0a.67.67,0,0,1,.59.68c0,.51.06.51.06,1s0,.5,0,1c0,.32-.28.55-.49.76s-.44.48-.76.48c-.59,0-.59.05-1.19.05s-.59-.1-1.18-.1-.59-.12-1.19-.12a1.11,1.11,0,0,1-.82-.25,1.19,1.19,0,0,1-.36-.82c0-.59,0-.59,0-1.19s0-.59,0-1.18v-1.19c0-.59-.06-.59-.06-1.18s0-.59,0-1.18.14-.6.14-1.19,0-.59,0-1.18-.17-.59-.17-1.19.18-.59.18-1.18-.06-.59-.06-1.18a1.3,1.3,0,0,1,.24-.91,1.29,1.29,0,0,1,.91-.19c.59,0,.59-.2,1.18-.2l1.18,0c.6,0,.6.12,1.19.12a1.11,1.11,0,0,1,.8.36,1.23,1.23,0,0,1,.47.8c0,.65-.1.65-.1,1.3s0,.65,0,1.3,0,.65,0,1.3a.62.62,0,0,1-.54.67c-.59,0-.59-.11-1.18-.11Z"/><path class="cls-2" d="M141.12,136.1a1.92,1.92,0,0,1-.56,1.35c-.31.31-.72.17-.72.62s.45.25.77.57a2.07,2.07,0,0,1,.59,1.39c0,.6-.07.6-.07,1.2s0,.6,0,1.2,0,.6,0,1.2a.66.66,0,0,1-.57.69c-.59,0-.59,0-1.18,0-.33,0-.51-.32-.51-.65,0-.63,0-.63,0-1.26s-.06-.63-.06-1.27-.11-.63-.11-1.26a.5.5,0,0,0-.53-.56.68.68,0,0,0-.69.58c0,.63.23.63.23,1.26s0,.62,0,1.25-.12.63-.12,1.26a.52.52,0,0,1-.54.56c-.59,0-.59.05-1.18.05a.55.55,0,0,1-.52-.61c0-.57-.13-.57-.13-1.13s.14-.57.14-1.13-.16-.57-.16-1.13.16-.57.16-1.13-.17-.57-.17-1.13,0-.57,0-1.13.12-.57.12-1.13v-2.26c0-.57,0-.57,0-1.13s0-.57,0-1.13a1.23,1.23,0,0,1,.39-.85,1.27,1.27,0,0,1,.84-.43h.95c.47,0,.47.14.94.14s.48.05,1,.05.72-.11,1,.06a2,2,0,0,1,.7.74,2,2,0,0,1,.25,1c0,.52,0,.52,0,1s-.05.53-.05,1.05,0,.52,0,1.05v1Zm-2.39.19c0-.55-.08-.55-.07-1.11s.13-.55.13-1.1.06-.55.06-1.11c0-.32-.38-.49-.7-.49a.46.46,0,0,0-.53.49c0,.56,0,.56,0,1.11s0,.55,0,1.1,0,.56,0,1.11a.56.56,0,0,0,.57.58.57.57,0,0,0,.58-.58Z"/><g class="cls-3"><path class="cls-4" d="M38.93,105l.18-27A15,15,0,0,1,31.34,65c-.89.17-3.71-5.48-4.24-9.72s.17-7.06,1.06-7.94,4.77-1.24,4.77-1.24.17-3.36,1.59-4.59,5.12-2.48,6.88-.71c0-.53-.88-3.18,0-4.41s5.65-2.65,7.42-.89c.18-.17,2.65-3,5.12-1.94S57.47,41,57.47,41a3.64,3.64,0,0,1,2.83,1.59c1.06,1.59,8,10.24,8.12,12.54A15.48,15.48,0,0,1,66.84,64c-1.77,3.18-4.6,9.18-4.6,9.18V105.3Z"/><path class="cls-5" d="M42.68,65.88c0-.14-.26-4.64,3.18-6.89s10.33-4.51,10.33-4.51l-2.91-3.71-5-2-3.71-1.86a8.39,8.39,0,0,1,.93,5c-.53,2.38-7,2.78-7,2.78s-1.58,4.37-4.63,4.37c.4.4,1.32,6.09,1.32,6.09S40.17,63.89,42.68,65.88Z"/><path class="cls-5" d="M62.24,73.16s2.83-6,4.6-9.18a15.48,15.48,0,0,0,1.58-8.83c-.14-1.87-4.69-7.9-7-11,1.55,5.59,3.62,14.75,2,19.18-2.38,6.62-12.19,13-12.19,13s3.18,4.24,1.33,15.1A22.44,22.44,0,0,1,44.15,105l18.09.27Z"/><polygon class="cls-5" points="43.48 79.52 39.11 78.72 39.37 89.85 43.48 79.52"/><path class="cls-6" d="M62,104.29h0a.79.79,0,0,1-.79-.8l.16-31.15a.87.87,0,0,1,.13-.44c0-.06,4.23-6.39,5.25-9.74a10.8,10.8,0,0,0-.78-9c-.48-.78-1.11-1.91-1.77-3.1-1.54-2.77-3.86-7-4.94-7.58s-10.06-1.72-15.91-2.3c-.2,1.4-.3,4.68,2.67,6.49,4.05,2.46,6.91,2.44,7,2.43h0a.8.8,0,0,1,.79.66A4.33,4.33,0,0,0,57,53.07a.78.78,0,0,1,.5.21.79.79,0,0,1,.18,1,.81.81,0,0,1-.88.42h-.05a27.76,27.76,0,0,0-9.12,3.7C43.93,60.72,44,67.11,44,67.17a.79.79,0,0,1-.78.81h0a.8.8,0,0,1-.8-.78c0-.3-.08-7.34,4.35-10.19a32.45,32.45,0,0,1,6.48-3.07l1.16-.38a6.15,6.15,0,0,1-2-2.88,17.24,17.24,0,0,1-7.17-2.63c-3.84-2.33-3.81-6.85-3.26-8.92a.79.79,0,0,1,.85-.58c2.56.24,15.45,1.53,17.26,2.57,1.36.78,3.15,3.89,5.54,8.18.65,1.18,1.27,2.3,1.73,3a12.25,12.25,0,0,1,1,10.28c-1,3.27-4.56,8.82-5.31,10l-.16,30.91A.79.79,0,0,1,62,104.29Z"/><path class="cls-6" d="M38.91,103.52a.81.81,0,0,1-.8-.79L38,78a16.6,16.6,0,0,1-6.42-7.09c-1.23-2.74-1.7-4.64-1.4-5.66L27.6,60.37A15.48,15.48,0,0,1,26.37,48.8a5.66,5.66,0,0,1,.55-1.39c1-1.6,4.88-3.2,7.21-2,2.07,1,5.45,11.21,6.44,14.31a.67.67,0,0,1,0,.24,3.76,3.76,0,0,1-3.8,4c-2.74,0-6.44-7.83-7.9-11.2a.8.8,0,0,1,.42-1,.79.79,0,0,1,1,.42c2.37,5.45,5.38,10.24,6.44,10.24A2.17,2.17,0,0,0,39,60c-2.17-6.81-4.67-12.74-5.58-13.24-1.57-.78-4.57.54-5.16,1.47a4.08,4.08,0,0,0-.37,1A13.89,13.89,0,0,0,29,59.62l2.76,5.24a.79.79,0,0,1-.08.86c0,.19-.14,1.26,1.32,4.52a15.11,15.11,0,0,0,6.13,6.56.81.81,0,0,1,.43.71l.14,25.21a.8.8,0,0,1-.8.8ZM31.53,65.88h0Zm0,0Zm0,0Zm0,0Z"/><path class="cls-6" d="M42.51,59.37a7.1,7.1,0,0,1-3.85-1.43.79.79,0,0,1-.14-1.11.8.8,0,0,1,1.12-.14s2,1.5,3.57,1a3.11,3.11,0,0,0,1.88-1.55,3.19,3.19,0,0,0,.14-2.51c-.17-.5-.39-1.25-.65-2.13-.9-3.06-2.59-8.75-3.74-9.91a3.58,3.58,0,0,0-2.57-.91,4.29,4.29,0,0,0-3,1.24,5.41,5.41,0,0,0-1.37,3.65.8.8,0,0,1-.75.84.78.78,0,0,1-.84-.74,7,7,0,0,1,1.8-4.83,5.77,5.77,0,0,1,4.13-1.75A5.2,5.2,0,0,1,42,40.45c1.33,1.34,2.71,5.77,4.14,10.59.25.86.47,1.61.63,2.08a4.82,4.82,0,0,1-.23,3.74,4.75,4.75,0,0,1-2.82,2.34A4.06,4.06,0,0,1,42.51,59.37Z"/><path class="cls-6" d="M49.31,55.45A6.93,6.93,0,0,1,45.49,54a.8.8,0,0,1-.13-1.12.8.8,0,0,1,1.12-.13h0s2.19,1.7,3.77.9.66-3.49.65-3.52a.8.8,0,1,1,1.53-.45c0,.16,1.17,4.08-1.46,5.4A3.72,3.72,0,0,1,49.31,55.45Z"/><path class="cls-6" d="M41.76,42a.79.79,0,0,1-.76-.55,10,10,0,0,1-.47-4.39c.27-1.13,1.62-2,2.79-2.54a5.3,5.3,0,0,1,4.68,0c2.4,1.48,2.5,4.93,2.5,5.08a.8.8,0,1,1-1.59,0h0s-.09-2.73-1.74-3.75a3.77,3.77,0,0,0-3.24.12,3.21,3.21,0,0,0-1.85,1.43A8.54,8.54,0,0,0,42.51,41,.78.78,0,0,1,42,42,.67.67,0,0,1,41.76,42Z"/><path class="cls-6" d="M57.3,41.81a.8.8,0,0,1-.8-.73c-.19-2.33-1-5.85-2.34-6.39a5,5,0,0,0-3.79.17,1.58,1.58,0,0,0-.76.58,14.81,14.81,0,0,0,.85,3.73.8.8,0,1,1-1.51.51A15.84,15.84,0,0,1,48,35.31a2.15,2.15,0,0,1,1.21-1.64,6.54,6.54,0,0,1,5.54-.45C57.47,34.34,58,40.28,58.09,41a.8.8,0,0,1-.73.86Z"/><path class="cls-6" d="M49,44.9a8.46,8.46,0,0,1-3.85-1,.83.83,0,0,1-.4-.48.79.79,0,0,1,.07-.62,4.33,4.33,0,0,0-.15-2.41.78.78,0,0,1,.52-1,.8.8,0,0,1,1,.52,6.82,6.82,0,0,1,.29,2.84c2.1.86,3.78.48,4.13.19a6.57,6.57,0,0,0,.16-1.83.8.8,0,0,1,.78-.82h0a.8.8,0,0,1,.8.77A7.58,7.58,0,0,1,52,43.64a1.93,1.93,0,0,1-1.2,1A5.5,5.5,0,0,1,49,44.9Z"/><path class="cls-6" d="M34.5,66.92a.79.79,0,0,1-.79-.69A3.9,3.9,0,0,1,36,62.37a.79.79,0,1,1,.71,1.42A2.33,2.33,0,0,0,35.29,66a.8.8,0,0,1-.7.88Z"/><path class="cls-6" d="M56.82,75.92a.81.81,0,0,1-.75-.5.79.79,0,0,1,.44-1c.08,0,.24-.08.45-.15a9.59,9.59,0,0,0,5.21-3.19.8.8,0,0,1,1.29.93,11.07,11.07,0,0,1-6.05,3.79l-.3.09A.79.79,0,0,1,56.82,75.92Z"/><path class="cls-6" d="M43.6,79.67a18.19,18.19,0,0,1-4.81-1.15A.8.8,0,0,1,39.36,77a13.74,13.74,0,0,0,4.46,1,.79.79,0,0,1,.23,1.57A3.19,3.19,0,0,1,43.6,79.67Z"/><path class="cls-6" d="M30.23,60.18h-.06a.8.8,0,0,1-.73-.86L29.77,55a.79.79,0,0,1,.85-.74.81.81,0,0,1,.74.86L31,59.44A.8.8,0,0,1,30.23,60.18Z"/><path class="cls-6" d="M52.83,50.72a9.66,9.66,0,0,1-1.28-.08.8.8,0,1,1,.2-1.58,7,7,0,0,0,4-.55.8.8,0,0,1,.8,1.38A7.84,7.84,0,0,1,52.83,50.72Z"/><path class="cls-7" d="M106,105l.18-27A15,15,0,0,1,98.4,65c-.89.17-3.71-5.48-4.24-9.72s.18-7.06,1.06-7.94S100,46.14,100,46.14s.17-3.36,1.59-4.59,5.12-2.48,6.88-.71c0-.53-.88-3.18,0-4.41s5.66-2.65,7.42-.89c.18-.17,2.65-3,5.12-1.94S124.54,41,124.54,41a3.63,3.63,0,0,1,2.82,1.59c1.06,1.59,8,10.24,8.13,12.54A15.58,15.58,0,0,1,133.9,64c-1.77,3.18-4.6,9.18-4.6,9.18V105.3Z"/><path class="cls-8" d="M109.74,65.88c0-.14-.26-4.64,3.18-6.89s10.34-4.51,10.34-4.51l-2.92-3.71-5-2-3.71-1.86a8.39,8.39,0,0,1,.93,5c-.53,2.38-7,2.78-7,2.78s-1.59,4.37-4.64,4.37c.4.4,1.32,6.09,1.32,6.09S107.23,63.89,109.74,65.88Z"/><path class="cls-8" d="M129.3,73.16s2.83-6,4.6-9.18a15.58,15.58,0,0,0,1.59-8.83c-.15-1.87-4.7-7.9-7-11,1.55,5.59,3.62,14.75,2,19.18-2.38,6.62-12.19,13-12.19,13s3.18,4.24,1.33,15.1A22.48,22.48,0,0,1,111.22,105l18.08.27Z"/><polygon class="cls-8" points="110.54 79.52 106.17 78.72 106.43 89.85 110.54 79.52"/><path class="cls-6" d="M129.09,104.29h0a.79.79,0,0,1-.79-.8l.16-31.15a.87.87,0,0,1,.13-.44c0-.06,4.24-6.39,5.25-9.74a10.77,10.77,0,0,0-.78-9c-.48-.78-1.11-1.91-1.77-3.1-1.54-2.77-3.86-7-4.94-7.58s-10.06-1.72-15.91-2.3c-.2,1.4-.3,4.68,2.67,6.49,4,2.46,6.91,2.44,7,2.43h0a.79.79,0,0,1,.78.66A4.33,4.33,0,0,0,124,53.07a.77.77,0,0,1,.49.21.79.79,0,0,1,.18,1,.81.81,0,0,1-.88.42h0a27.76,27.76,0,0,0-9.12,3.7C111,60.72,111,67.11,111,67.17a.79.79,0,0,1-.78.81h0a.8.8,0,0,1-.8-.78c0-.3-.07-7.34,4.35-10.19a32.45,32.45,0,0,1,6.48-3.07l1.16-.38a6.15,6.15,0,0,1-2-2.88,17.24,17.24,0,0,1-7.17-2.63c-3.84-2.33-3.81-6.85-3.26-8.92a.79.79,0,0,1,.85-.58c2.56.24,15.45,1.53,17.26,2.57,1.36.78,3.16,3.89,5.54,8.18.66,1.18,1.27,2.3,1.73,3a12.25,12.25,0,0,1,1,10.28c-1,3.27-4.56,8.82-5.31,10l-.16,30.91A.79.79,0,0,1,129.09,104.29Z"/><path class="cls-6" d="M106,103.52a.81.81,0,0,1-.8-.79L105,78a16.6,16.6,0,0,1-6.42-7.09c-1.23-2.74-1.7-4.64-1.4-5.66l-2.56-4.86A15.48,15.48,0,0,1,93.43,48.8,5.66,5.66,0,0,1,94,47.41c1-1.6,4.88-3.2,7.22-2,2.06,1,5.45,11.21,6.43,14.31a.67.67,0,0,1,0,.24,3.76,3.76,0,0,1-3.8,4c-2.74,0-6.43-7.83-7.9-11.2a.8.8,0,0,1,.42-1,.79.79,0,0,1,1,.42c2.37,5.45,5.38,10.24,6.44,10.24a2.17,2.17,0,0,0,2.2-2.27c-2.17-6.81-4.67-12.74-5.58-13.24-1.57-.78-4.57.54-5.16,1.47a4.08,4.08,0,0,0-.37,1,13.89,13.89,0,0,0,1.11,10.38l2.76,5.24a.79.79,0,0,1-.08.86c0,.19-.14,1.26,1.33,4.52a15.06,15.06,0,0,0,6.12,6.56.79.79,0,0,1,.43.71l.14,25.21a.79.79,0,0,1-.79.8ZM98.59,65.88h0Zm0,0Zm0,0Zm0,0Z"/><path class="cls-6" d="M109.57,59.37a7.1,7.1,0,0,1-3.85-1.43.79.79,0,0,1-.14-1.11.8.8,0,0,1,1.12-.14s2,1.5,3.57,1a3.11,3.11,0,0,0,1.88-1.55,3.19,3.19,0,0,0,.14-2.51c-.17-.5-.39-1.25-.65-2.13-.9-3.06-2.59-8.75-3.74-9.91a3.58,3.58,0,0,0-2.57-.91,4.24,4.24,0,0,0-3,1.24A5.39,5.39,0,0,0,101,45.56a.79.79,0,0,1-.75.84.78.78,0,0,1-.84-.74,7,7,0,0,1,1.8-4.83,5.77,5.77,0,0,1,4.13-1.75A5.2,5.2,0,0,1,109,40.45c1.33,1.34,2.72,5.77,4.14,10.59.26.86.48,1.61.63,2.08a4.82,4.82,0,0,1-.23,3.74,4.75,4.75,0,0,1-2.82,2.34A4.06,4.06,0,0,1,109.57,59.37Z"/><path class="cls-6" d="M116.38,55.45A6.94,6.94,0,0,1,112.55,54a.8.8,0,0,1-.13-1.12.8.8,0,0,1,1.12-.13h0s2.19,1.7,3.77.9.66-3.49.65-3.52a.8.8,0,0,1,1.53-.45c.05.16,1.18,4.08-1.46,5.4A3.71,3.71,0,0,1,116.38,55.45Z"/><path class="cls-6" d="M108.82,42a.79.79,0,0,1-.76-.55,10,10,0,0,1-.47-4.39c.27-1.13,1.62-2,2.79-2.54a5.3,5.3,0,0,1,4.68,0c2.4,1.48,2.5,4.93,2.5,5.08a.8.8,0,0,1-1.59,0h0s-.09-2.73-1.74-3.75A3.77,3.77,0,0,0,111,36a3.21,3.21,0,0,0-1.85,1.43,8.53,8.53,0,0,0,.44,3.53.8.8,0,0,1-.52,1A.67.67,0,0,1,108.82,42Z"/><path class="cls-6" d="M124.36,41.81a.79.79,0,0,1-.79-.73c-.2-2.33-1.06-5.85-2.34-6.39a5,5,0,0,0-3.79.17,1.64,1.64,0,0,0-.77.58,14.81,14.81,0,0,0,.85,3.73.8.8,0,1,1-1.51.51,16.22,16.22,0,0,1-.92-4.37,2.15,2.15,0,0,1,1.21-1.64,6.54,6.54,0,0,1,5.54-.45c2.69,1.12,3.26,7.06,3.31,7.73a.8.8,0,0,1-.72.86Z"/><path class="cls-6" d="M116,44.9a8.46,8.46,0,0,1-3.85-1,.83.83,0,0,1-.4-.48.84.84,0,0,1,.07-.62,4.33,4.33,0,0,0-.15-2.41.78.78,0,0,1,.52-1,.79.79,0,0,1,1,.52,6.82,6.82,0,0,1,.29,2.84c2.1.86,3.78.48,4.13.19a6.57,6.57,0,0,0,.16-1.83.8.8,0,0,1,.78-.82h0a.8.8,0,0,1,.8.77,7.58,7.58,0,0,1-.31,2.55,1.93,1.93,0,0,1-1.2,1A5.5,5.5,0,0,1,116,44.9Z"/><path class="cls-6" d="M101.56,66.92a.79.79,0,0,1-.79-.69A3.92,3.92,0,0,1,103,62.37a.79.79,0,1,1,.71,1.42A2.33,2.33,0,0,0,102.35,66a.8.8,0,0,1-.7.88Z"/><path class="cls-6" d="M123.88,75.92a.81.81,0,0,1-.75-.5.79.79,0,0,1,.44-1c.08,0,.24-.08.45-.15a9.59,9.59,0,0,0,5.21-3.19.8.8,0,0,1,1.29.93,11.07,11.07,0,0,1-6.05,3.79l-.3.09A.79.79,0,0,1,123.88,75.92Z"/><path class="cls-6" d="M110.66,79.67a18.19,18.19,0,0,1-4.81-1.15.81.81,0,0,1-.46-1,.8.8,0,0,1,1-.46,13.74,13.74,0,0,0,4.46,1,.79.79,0,1,1,.23,1.57A3.19,3.19,0,0,1,110.66,79.67Z"/><path class="cls-6" d="M97.29,60.18h-.06a.8.8,0,0,1-.73-.86L96.83,55a.79.79,0,0,1,.85-.74.81.81,0,0,1,.74.86l-.33,4.35A.8.8,0,0,1,97.29,60.18Z"/><path class="cls-6" d="M119.9,50.72a9.7,9.7,0,0,1-1.29-.08.8.8,0,0,1,.2-1.58,7,7,0,0,0,4-.55.8.8,0,1,1,.8,1.38A7.82,7.82,0,0,1,119.9,50.72Z"/><path class="cls-9" d="M68.26,104.85l.23-34.64a19.29,19.29,0,0,1-10-16.53c-1.13.23-4.75-7-5.43-12.45s.23-9.06,1.36-10.19,6.11-1.59,6.11-1.59.23-4.3,2-5.88,6.56-3.17,8.83-.91c0-.68-1.13-4.08,0-5.66s7.24-3.4,9.51-1.13c.22-.23,3.39-3.85,6.56-2.49S92,22.89,92,22.89a4.68,4.68,0,0,1,3.63,2C97,27,105.84,38.06,106.07,41a19.75,19.75,0,0,1-2,11.32c-2.26,4.08-5.88,11.77-5.88,11.77V105.3Z"/><path class="cls-10" d="M73.07,54.75c0-.16-.34-5.94,4.08-8.83s13.24-5.77,13.24-5.77L86.66,35.4,80.2,32.85l-4.75-2.38s1.87,3.4,1.19,6.45-9,3.57-9,3.57-2,5.6-6,5.6c.51.51,1.7,7.82,1.7,7.82S69.84,52.21,73.07,54.75Z"/><path class="cls-10" d="M98.15,64.09s3.62-7.69,5.88-11.77a19.75,19.75,0,0,0,2-11.32c-.18-2.39-6-10.13-8.95-14.06,2,7.17,4.66,18.91,2.61,24.59C96.67,60,84.11,68.17,84.11,68.17s4.07,5.43,1.7,19.36C84.35,96.07,78.93,101.8,75,105l23.19.35Z"/><polygon class="cls-10" points="74.09 72.25 68.48 71.23 68.83 85.49 74.09 72.25"/><path class="cls-6" d="M97.88,104h0a1,1,0,0,1-1-1L97.07,63a1,1,0,0,1,.17-.55c.05-.09,5.42-8.2,6.72-12.5s1-8.32-1-11.51c-.62-1-1.42-2.45-2.27-4-2-3.55-5-8.91-6.33-9.71S81.47,22.59,74,21.84c-.26,1.8-.39,6,3.42,8.31,5.19,3.16,8.86,3.13,8.9,3.12h0a1,1,0,0,1,1,.85,5.54,5.54,0,0,0,4.06,4.22.92.92,0,0,1,.63.27,1,1,0,0,1-.89,1.76h-.06a35.63,35.63,0,0,0-11.69,4.75c-4.72,3-4.64,11.22-4.64,11.31a1,1,0,0,1-1,1h0a1,1,0,0,1-1-1c0-.38-.1-9.41,5.57-13.06a41.08,41.08,0,0,1,8.31-3.94c.56-.19,1-.35,1.49-.48a7.86,7.86,0,0,1-2.54-3.69,22.12,22.12,0,0,1-9.2-3.38c-4.92-3-4.88-8.79-4.17-11.43a1,1,0,0,1,1.08-.75c3.29.31,19.81,2,22.14,3.3,1.74,1,4,5,7.1,10.49.83,1.51,1.63,2.94,2.22,3.89,2.28,3.7,2.71,8.26,1.22,13.18-1.27,4.19-5.86,11.31-6.81,12.78L98.9,103A1,1,0,0,1,97.88,104Z"/><path class="cls-6" d="M68.23,103a1,1,0,0,1-1-1L67,70.27a21.22,21.22,0,0,1-8.23-9.08c-1.58-3.52-2.18-5.95-1.79-7.26l-3.29-6.24a19.84,19.84,0,0,1-1.57-14.83,7.41,7.41,0,0,1,.7-1.78c1.3-2.06,6.26-4.1,9.25-2.63,2.65,1.3,7,14.38,8.25,18.35a.84.84,0,0,1,0,.31c0,1.77-1,5.1-4.87,5.1-3.51,0-8.25-10-10.13-14.36A1,1,0,0,1,57.29,37c3,7,6.89,13.13,8.25,13.13a2.81,2.81,0,0,0,2.83-2.91c-2.8-8.74-6-16.33-7.16-17-2-1-5.86.69-6.62,1.89a5.3,5.3,0,0,0-.47,1.26,17.79,17.79,0,0,0,1.42,13.31l3.54,6.71a1,1,0,0,1-.1,1.1c0,.25-.19,1.62,1.69,5.8a19.4,19.4,0,0,0,7.86,8.41,1,1,0,0,1,.55.91L69.25,102a1,1,0,0,1-1,1ZM58.77,54.76h0Zm0,0Zm0,0Zm0,0Z"/><path class="cls-6" d="M72.84,46.42a9.11,9.11,0,0,1-4.93-1.83,1,1,0,0,1-.17-1.44A1,1,0,0,1,69.17,43s2.51,1.92,4.58,1.27a4.06,4.06,0,0,0,2.41-2A4.13,4.13,0,0,0,76.33,39c-.21-.64-.49-1.6-.83-2.73-1.16-3.92-3.32-11.22-4.8-12.7a4.52,4.52,0,0,0-3.29-1.17A5.43,5.43,0,0,0,63.57,24a6.83,6.83,0,0,0-1.76,4.67,1,1,0,0,1-1,1.08,1,1,0,0,1-1.08-1,8.94,8.94,0,0,1,2.31-6.19,7.4,7.4,0,0,1,5.3-2.24,6.57,6.57,0,0,1,4.77,1.77c1.7,1.7,3.49,7.39,5.31,13.57.33,1.1.61,2,.81,2.66A6.21,6.21,0,0,1,78,43.2a6,6,0,0,1-3.62,3A5.06,5.06,0,0,1,72.84,46.42Z"/><path class="cls-6" d="M81.57,41.39a9,9,0,0,1-4.9-1.87,1,1,0,1,1,1.26-1.6h0s2.81,2.17,4.85,1.15c1.83-.92.84-4.48.83-4.51a1,1,0,1,1,2-.58c.07.21,1.51,5.22-1.87,6.92A4.69,4.69,0,0,1,81.57,41.39Z"/><path class="cls-6" d="M71.88,24.13a1,1,0,0,1-1-.7c-.11-.35-1.1-3.5-.6-5.62.34-1.45,2.07-2.64,3.58-3.26,2.25-.93,4.5-.94,6,0,3.07,1.9,3.2,6.32,3.2,6.5a1,1,0,1,1-2,.05h0s-.11-3.51-2.23-4.82a4.82,4.82,0,0,0-4.15.16,4.11,4.11,0,0,0-2.37,1.84,10.89,10.89,0,0,0,.55,4.52,1,1,0,0,1-.65,1.28A.89.89,0,0,1,71.88,24.13Z"/><path class="cls-6" d="M91.81,23.91a1,1,0,0,1-1-.94c-.25-3-1.35-7.51-3-8.2a6.5,6.5,0,0,0-4.86.22c-.73.35-1,.68-1,.75A18.79,18.79,0,0,0,83,20.52a1,1,0,0,1-1.94.66c-.13-.4-1.31-3.93-1.18-5.62a2.75,2.75,0,0,1,1.55-2.1,8.42,8.42,0,0,1,7.11-.57c3.44,1.44,4.17,9.05,4.24,9.91a1,1,0,0,1-.93,1.1Z"/><path class="cls-6" d="M81.12,27.87a10.9,10.9,0,0,1-4.94-1.26,1.05,1.05,0,0,1-.51-.62,1,1,0,0,1,.09-.79,5.49,5.49,0,0,0-.2-3.09,1,1,0,1,1,2-.61,8.86,8.86,0,0,1,.38,3.65c2.68,1.1,4.84.61,5.29.24A8.68,8.68,0,0,0,83.39,23a1,1,0,0,1,1-1.05h0a1,1,0,0,1,1,1A9.67,9.67,0,0,1,85,26.25a2.53,2.53,0,0,1-1.54,1.24A7,7,0,0,1,81.12,27.87Z"/><path class="cls-6" d="M62.58,56.1a1,1,0,0,1-1-.89,5,5,0,0,1,2.89-5,1,1,0,1,1,.92,1.82A3,3,0,0,0,63.6,55a1,1,0,0,1-.91,1.12Z"/><path class="cls-6" d="M91.19,67.63a1,1,0,0,1-.4-2c.11,0,.31-.11.59-.19,1.29-.37,4.72-1.38,6.67-4.09a1,1,0,0,1,1.43-.23,1,1,0,0,1,.23,1.42C97.35,65.87,93.43,67,92,67.44l-.39.12A1,1,0,0,1,91.19,67.63Z"/><path class="cls-6" d="M74.24,72.45A22.44,22.44,0,0,1,68.08,71a1,1,0,0,1,.73-1.91c1.59.61,4.56,1.51,5.72,1.34a1,1,0,1,1,.29,2A5.11,5.11,0,0,1,74.24,72.45Z"/><path class="cls-6" d="M57.11,47.46H57a1,1,0,0,1-.94-1.09l.42-5.59a1,1,0,0,1,2,.15l-.42,5.59A1,1,0,0,1,57.11,47.46Z"/><path class="cls-6" d="M86.08,35.32a13.71,13.71,0,0,1-1.64-.1,1,1,0,0,1,.25-2,9,9,0,0,0,5.17-.7,1,1,0,0,1,1,1.77A10.17,10.17,0,0,1,86.08,35.32Z"/></g><path class="cls-2" d="M33.74,104.22c-.77,0-1.44-.36-1.44-1.13,0-1.25,0-1.25,0-2.51s-.18-1.25-.18-2.51A1.08,1.08,0,0,0,31,96.87a1.17,1.17,0,0,0-1.31,1.2c0,1.31-.29,1.31-.29,2.61s.13,1.3.13,2.6.29,1.3.29,2.6A1.1,1.1,0,0,0,31,107.12c.7,0,.7-.06,1.4-.06a5.83,5.83,0,0,1,2.85.85,5.9,5.9,0,0,1,2.16,2,5.77,5.77,0,0,1,.3,2.9c0,1.48.44,1.48.44,3s-.34,1.49-.34,3,.29,1.48.29,3a3.09,3.09,0,0,1-.84,2.08,3,3,0,0,1-2.08.66c-1.39,0-1.39.13-2.79.13s-1.39-.09-2.79-.09-1.39.16-2.78.16a3.07,3.07,0,0,1-2.08-.87,2.9,2.9,0,0,1-.63-2.07c0-1.18-.22-1.18-.22-2.37S24,118.22,24,117a1.55,1.55,0,0,1,1.42-1.54c1.4,0,1.4.29,2.79.29A1.36,1.36,0,0,1,29.64,117c0,.28.09.28.09.56A1.13,1.13,0,0,0,31,118.84c.77,0,1.6-.47,1.6-1.24,0-1.68-.17-1.68-.17-3.35A1.57,1.57,0,0,0,31,112.7c-.7,0-.7.15-1.4.15a5.89,5.89,0,0,1-2.89-.55,5.94,5.94,0,0,1-2-2.21,5.62,5.62,0,0,1-.64-2.81c0-1.34-.21-1.34-.21-2.68s.15-1.34.15-2.68.14-1.34.14-2.67.06-1.34.06-2.68-.45-1.34-.45-2.68A3,3,0,0,1,24.83,92a3,3,0,0,1,1.94-1.13c1.39,0,1.39.47,2.79.47s1.39-.11,2.78-.11h2.79a3,3,0,0,1,2.13.58,3.18,3.18,0,0,1,.87,2.13c0,1.53-.08,1.53-.08,3.07s-.37,1.53-.37,3.07.29,1.53.29,3.06c0,.77-.67,1.13-1.44,1.13Z"/><path class="cls-11" d="M26.77,127.22a5.54,5.54,0,0,1-3.84-1.6,5.19,5.19,0,0,1-1.37-3.84,2.81,2.81,0,0,0-.07-.72,8.48,8.48,0,0,1-.15-1.65,13.21,13.21,0,0,1,.07-1.43c0-.24,0-.47,0-.94a4.11,4.11,0,0,1,2.49-3.75,10.12,10.12,0,0,1-1.42-2,8,8,0,0,1-1-4.06,4.63,4.63,0,0,0-.08-1,11.05,11.05,0,0,1-.13-1.72,13,13,0,0,1,.09-1.62,6.84,6.84,0,0,0,.06-1.06,13,13,0,0,1,.09-1.6,9.16,9.16,0,0,0,.05-1.07c0-.73,0-1.09,0-1.45s0-.62,0-1.23a1.25,1.25,0,0,0-.09-.55,6.08,6.08,0,0,1-.36-2.13,5.37,5.37,0,0,1,1.83-3.7,5.35,5.35,0,0,1,3.71-1.86A6.11,6.11,0,0,1,29,88.7a1.46,1.46,0,0,0,.6.1,10.86,10.86,0,0,0,1.19,0c.4,0,.79-.06,1.59-.06h2.79A5.41,5.41,0,0,1,39,90a5.69,5.69,0,0,1,1.6,3.9c0,.84,0,1.25,0,1.67s0,.7,0,1.4a8.37,8.37,0,0,1-.25,2.11,3.08,3.08,0,0,0-.12,1,4.94,4.94,0,0,0,.1,1.08,8.93,8.93,0,0,1,.19,2,3.54,3.54,0,0,1-2.8,3.49,8.06,8.06,0,0,1,1.86,2.13,6.44,6.44,0,0,1,.65,3.58c0,.19,0,.38,0,.57a2,2,0,0,0,.12.78,6.9,6.9,0,0,1,.32,2.19,8.08,8.08,0,0,1-.23,2,3.36,3.36,0,0,0-.11.94,4.22,4.22,0,0,0,.1,1,8.82,8.82,0,0,1,.19,2A5.59,5.59,0,0,1,39,125.63,5.25,5.25,0,0,1,35.13,127a10.22,10.22,0,0,0-1.16,0,13.86,13.86,0,0,1-1.63.08c-.77,0-1.15,0-1.54-.05s-.62,0-1.25,0a7.31,7.31,0,0,0-1.11.07A13.68,13.68,0,0,1,26.77,127.22Zm-.19-5.06a.41.41,0,0,0,.19.06,9.36,9.36,0,0,0,1.11-.06,13.27,13.27,0,0,1,1.67-.1c.78,0,1.16,0,1.55,0s.62,0,1.24,0a9.74,9.74,0,0,0,1.17-.06c.38,0,.81-.07,1.62-.07a2.58,2.58,0,0,0,.37,0,.58.58,0,0,0,0-.21,3.75,3.75,0,0,0-.1-1,9.56,9.56,0,0,1-.19-2,8.69,8.69,0,0,1,.23-2,3.28,3.28,0,0,0,.11-.93,2,2,0,0,0-.12-.78,7,7,0,0,1-.32-2.19c0-.25,0-.5,0-.75a6,6,0,0,0,0-1A3.79,3.79,0,0,0,34,110.07a3.45,3.45,0,0,0-1.6-.51c-.25,0-.37,0-.49,0a8.72,8.72,0,0,1-.91,0,3.59,3.59,0,0,1-3.68-3.74,3.1,3.1,0,0,0-.08-.76,7.34,7.34,0,0,1-.21-1.84,8.3,8.3,0,0,0-.05-1,12.65,12.65,0,0,1-.08-1.55,7.37,7.37,0,0,1,.21-1.85,2.68,2.68,0,0,0,.08-.76A3.67,3.67,0,0,1,31,94.37a3.57,3.57,0,0,1,3.69,3.7,6.39,6.39,0,0,0,.06.91,10,10,0,0,1,.12,1.6c0,.55,0,.86,0,1.14h.5a10.38,10.38,0,0,1-.13-1.69,8.54,8.54,0,0,1,.25-2.12,3.05,3.05,0,0,0,.12-1c0-.84,0-1.26.05-1.67s0-.7,0-1.4a.54.54,0,0,0-.05-.19l-.45,0H32.34a10.86,10.86,0,0,0-1.19,0c-.4,0-.8.06-1.59.06a6.4,6.4,0,0,1-2.2-.36,1.27,1.27,0,0,0-.35-.1c-.1.08-.23.21-.41.38a4.24,4.24,0,0,0-.36.39,1.51,1.51,0,0,0,.09.33,6.07,6.07,0,0,1,.35,2.13c0,.72,0,1.08,0,1.44s0,.62,0,1.24a13.52,13.52,0,0,1-.08,1.6,8.59,8.59,0,0,0-.06,1.07,13,13,0,0,1-.09,1.62,8.53,8.53,0,0,0-.06,1.06,4.63,4.63,0,0,0,.08,1,9.91,9.91,0,0,1,.13,1.72,3.24,3.24,0,0,0,.3,1.56,3.49,3.49,0,0,0,1.07,1.29,3.67,3.67,0,0,0,1.64.22l.17,0A5.59,5.59,0,0,1,31,110.2a4,4,0,0,1,3.93,4,11.64,11.64,0,0,0,.07,1.42,15.57,15.57,0,0,1,.1,1.93,3.89,3.89,0,0,1-4.1,3.74,3.59,3.59,0,0,1-3.68-3.09,6.18,6.18,0,0,1-.85-.13c0,.13,0,.25,0,.35s0,.47,0,.94a3.45,3.45,0,0,0,.06.72,7.56,7.56,0,0,1,.16,1.65A3,3,0,0,0,26.58,122.16Zm7.16-15.44Zm2.79-5Zm-.74-8Z"/><path class="cls-2" d="M53.14,91.2a1.3,1.3,0,0,1,1.38,1.3c0,1.33-.18,1.33-.18,2.66s.27,1.33.27,2.66-.28,1.33-.28,2.66.23,1.34.23,2.67.11,1.33.11,2.66.12,1.33.12,2.66-.38,1.33-.38,2.66.2,1.33.2,2.67-.15,1.33-.15,2.66-.09,1.33-.09,2.66.06,1.33.06,2.66a2.54,2.54,0,0,1-.82,1.86,2.43,2.43,0,0,1-1.86.72c-1.4,0-1.4.25-2.79.25s-1.4-.21-2.79-.21-1.4.08-2.79.08a2.93,2.93,0,0,1-2.1-.6,3,3,0,0,1-.57-2.1c0-1.33-.14-1.33-.14-2.66s0-1.33,0-2.66.24-1.34.24-2.67,0-1.33,0-2.66-.34-1.33-.34-2.66.23-1.33.23-2.66,0-1.34,0-2.67,0-1.33,0-2.66-.11-1.33-.11-2.66-.06-1.33-.06-2.66-.16-1.33-.16-2.66c0-.77.83-1.22,1.6-1.22,1.39,0,1.39-.21,2.79-.21A1.31,1.31,0,0,1,46,92.5c0,1.39-.07,1.39-.07,2.79s.38,1.39.38,2.79-.22,1.39-.22,2.78.11,1.4.11,2.79.08,1.4.08,2.79-.06,1.4-.06,2.79-.33,1.4-.33,2.79.11,1.39.11,2.79.13,1.39.13,2.79a1.41,1.41,0,0,0,2.81,0c0-1.4-.06-1.4-.06-2.79s.24-1.4.24-2.79,0-1.4,0-2.79-.48-1.4-.48-2.79.15-1.4.15-2.79.21-1.39.21-2.79-.14-1.39-.14-2.79-.19-1.39-.19-2.79.37-1.39.37-2.78a1.3,1.3,0,0,1,1.25-1.42c1.4,0,1.4.12,2.79.12Z"/><path class="cls-11" d="M49,127.11a10.43,10.43,0,0,1-1.77-.13,6.07,6.07,0,0,0-1-.08c-.63,0-.94,0-1.26,0s-.76,0-1.53,0a5.29,5.29,0,0,1-3.87-1.33,5.3,5.3,0,0,1-1.3-3.87,8.78,8.78,0,0,0-.06-1.08,13.11,13.11,0,0,1-.08-1.58v-2.66a8.83,8.83,0,0,1,.16-1.79,4,4,0,0,0,.08-.88v-2.66a2.41,2.41,0,0,0-.09-.71,7,7,0,0,1-.25-2,9,9,0,0,1,.15-1.76,4.26,4.26,0,0,0,.08-.9c0-.63,0-1,0-1.26s0-.7,0-1.41,0-1,0-1.41,0-.62,0-1.25a9.46,9.46,0,0,0,0-1.11c0-.36-.06-.77-.06-1.55,0-.61,0-.91,0-1.22s0-.72,0-1.44a6.33,6.33,0,0,0-.07-1,13.29,13.29,0,0,1-.09-1.63A3.88,3.88,0,0,1,42,88.78a5.12,5.12,0,0,0,1-.08,10.67,10.67,0,0,1,1.78-.13,3.69,3.69,0,0,1,2.79,1.27,3.66,3.66,0,0,1,2.78-1.26c.81,0,1.24,0,1.62.07a10.43,10.43,0,0,0,1.17,0h0A3.8,3.8,0,0,1,57,92.5a11,11,0,0,1-.11,1.66,6,6,0,0,0-.07,1,3.11,3.11,0,0,0,.09.84,8.76,8.76,0,0,1,.18,1.82,8.16,8.16,0,0,1-.19,1.84,3,3,0,0,0-.09.82,4.17,4.17,0,0,0,.08.91,9,9,0,0,1,.15,1.76c0,.56,0,.84,0,1.13s.06.76.06,1.53a9.33,9.33,0,0,0,0,1.11c0,.37.07.78.07,1.55a6.75,6.75,0,0,1-.29,2,1.8,1.8,0,0,0-.09.64,4.76,4.76,0,0,0,.07,1,9.77,9.77,0,0,1,.13,1.71,10.79,10.79,0,0,1-.1,1.61,8.65,8.65,0,0,0,0,1c0,.74,0,1.12-.05,1.49s0,.59,0,1.17,0,.91,0,1.22,0,.72,0,1.44a5.12,5.12,0,0,1-5.18,5.08,3.84,3.84,0,0,0-1,.09A9.59,9.59,0,0,1,49,127.11Zm-5.71-4.7Zm2.92-.51a10.35,10.35,0,0,1,1.77.14,6.19,6.19,0,0,0,1,.07,4.66,4.66,0,0,0,.95-.08,8.65,8.65,0,0,1,1.84-.17h.15l0-.09c0-.59,0-.89,0-1.2s0-.72,0-1.44,0-1.12.05-1.5,0-.58,0-1.16a13,13,0,0,1,.09-1.62,8.16,8.16,0,0,0,.06-1,4.63,4.63,0,0,0-.08-1,11.24,11.24,0,0,1-.12-1.71,6.75,6.75,0,0,1,.28-2,1.85,1.85,0,0,0,.1-.65c0-.56,0-.83,0-1.11s-.07-.78-.07-1.55a9.61,9.61,0,0,0-.05-1.13c0-.38-.06-.77-.06-1.53a4.17,4.17,0,0,0-.08-.91,9.85,9.85,0,0,1-.15-1.76A8,8,0,0,1,52,98.65,3.92,3.92,0,0,0,52,97a8.76,8.76,0,0,1-.18-1.82,11.54,11.54,0,0,1,.09-1.49l-.4,0h0a8.81,8.81,0,0,1-.19.9,2.31,2.31,0,0,0-.1.75,6.52,6.52,0,0,0,.07,1,10.48,10.48,0,0,1,.12,1.74,9.88,9.88,0,0,0,.06,1.15,14.21,14.21,0,0,1,.08,1.64,10.38,10.38,0,0,1-.13,1.76,5.27,5.27,0,0,0-.08,1,14.1,14.1,0,0,1-.09,1.67,9.42,9.42,0,0,0-.06,1.12,1.25,1.25,0,0,0,.1.58,6.2,6.2,0,0,1,.38,2.21c0,.71,0,1.07,0,1.43s0,.68,0,1.36a9.55,9.55,0,0,1-.16,1.83,4.63,4.63,0,0,0-.08,1c0,.64,0,1,0,1.28s0,.76,0,1.51a3.91,3.91,0,0,1-7.81,0,10.07,10.07,0,0,0-.06-1.18c0-.38-.07-.8-.07-1.61a10.86,10.86,0,0,0-.05-1.19c0-.37-.06-.8-.06-1.6a7.58,7.58,0,0,1,.23-2,2.63,2.63,0,0,0,.1-.81c0-.75,0-1.13,0-1.5s0-.65,0-1.29,0-.94,0-1.25-.05-.77-.05-1.54a10.64,10.64,0,0,0,0-1.18c0-.38-.06-.8-.06-1.61a10.43,10.43,0,0,1,.14-1.79,5,5,0,0,0,.08-1,2,2,0,0,0-.1-.74,6.89,6.89,0,0,1-.28-2c0-.77,0-1.15,0-1.53v-.08a3.54,3.54,0,0,1-.53.06,11.19,11.19,0,0,1,.08,1.42c0,.61,0,.91,0,1.22s0,.72,0,1.44c0,.56,0,.83,0,1.11a13.21,13.21,0,0,1,.07,1.55c0,.71,0,1.06,0,1.41s0,.63,0,1.25,0,1,0,1.26,0,.7,0,1.41a9.85,9.85,0,0,1-.15,1.76,4.13,4.13,0,0,0-.08.9,2,2,0,0,0,.09.7,7.19,7.19,0,0,1,.25,2v2.66a8.83,8.83,0,0,1-.16,1.79,3.93,3.93,0,0,0-.08.88v2.66a8.78,8.78,0,0,0,.06,1.08,15.66,15.66,0,0,1,.08,1.58v.2h.17c.63,0,.94,0,1.26,0S45.4,121.9,46.17,121.9Z"/><path class="cls-2" d="M66.66,91.15a4.17,4.17,0,0,1,2.14.71,4.27,4.27,0,0,1,1.67,1.51,4.61,4.61,0,0,1,.9,2.19c0,1.47-.43,1.47-.43,2.93s.19,1.47.19,2.93-.17,1.46-.17,2.93.22,1.46.22,2.93a5.83,5.83,0,0,1-.67,2.86,5.72,5.72,0,0,1-2.28,1.79,5.15,5.15,0,0,1-2.68.66c-.7,0-.7.09-1.4.09a1.75,1.75,0,0,0-1.61,1.57c0,1.49.31,1.49.31,3s-.21,1.49-.21,3,.19,1.49.19,3a1.38,1.38,0,0,1-1.47,1.28c-1.39,0-1.39.05-2.79.05a1.3,1.3,0,0,1-1.35-1.33c0-1.34.23-1.34.23-2.67s-.28-1.33-.28-2.66.19-1.33.19-2.66-.31-1.33-.31-2.67.12-1.33.12-2.66S57,108.53,57,107.2s.16-1.33.16-2.66-.07-1.33-.07-2.66-.06-1.33-.06-2.67,0-1.33,0-2.66.2-1.33.2-2.66A2.63,2.63,0,0,1,58.09,92,2.49,2.49,0,0,1,60,91.33c1.12,0,1.12,0,2.23,0s1.12-.48,2.23-.48,1.12.28,2.23.28Zm-1.09,12.13c0-1.3-.07-1.3-.07-2.6s-.06-1.31-.06-2.61a1.19,1.19,0,0,0-1.29-1.25,1.33,1.33,0,0,0-1.45,1.25c0,1.3-.07,1.3-.07,2.61s-.1,1.3-.1,2.6,0,1.3,0,2.6c0,.77.88,1.17,1.65,1.17s1.44-.4,1.44-1.17C65.59,104.58,65.58,104.58,65.57,103.28Z"/><path class="cls-11" d="M58.57,127a3.8,3.8,0,0,1-3.85-3.83,9.09,9.09,0,0,1,.15-1.77,4.13,4.13,0,0,0,.08-.9,3,3,0,0,0-.09-.81,8.19,8.19,0,0,1-.19-1.85,10,10,0,0,1,.12-1.7,5.64,5.64,0,0,0,.07-1,2.76,2.76,0,0,0-.09-.77,7.6,7.6,0,0,1-.22-1.9c0-.77,0-1.18.07-1.55a9.33,9.33,0,0,0,.05-1.11,8.87,8.87,0,0,0-.05-1.08,13.11,13.11,0,0,1-.08-1.58,11.12,11.12,0,0,1,.1-1.63,8.23,8.23,0,0,0,.06-1c0-.61,0-.91,0-1.21s0-.73,0-1.45,0-.91,0-1.22,0-.72,0-1.45,0-.94,0-1.26,0-.7,0-1.4a11.2,11.2,0,0,1,.12-1.7,4.63,4.63,0,0,0,.08-1,5.07,5.07,0,0,1,1.58-3.65A4.92,4.92,0,0,1,60,88.83H62.2l.13,0a4.79,4.79,0,0,1,2.1-.45,6.62,6.62,0,0,1,1.71.21,1.68,1.68,0,0,0,.52.07h0a6.64,6.64,0,0,1,3.4,1,6.77,6.77,0,0,1,2.57,2.43l.15.25a6.15,6.15,0,0,1,1.09,3.19,6.81,6.81,0,0,1-.32,2.17,2.14,2.14,0,0,0-.11.76,7.83,7.83,0,0,0,.07,1.15,12.17,12.17,0,0,1,.12,1.78,14.74,14.74,0,0,1-.1,1.75,8.21,8.21,0,0,0-.07,1.18,5.92,5.92,0,0,0,.08,1.09,11.06,11.06,0,0,1,.14,1.84,8.18,8.18,0,0,1-1,4.11,7,7,0,0,1-2.88,2.52l-.31.18a7.56,7.56,0,0,1-3.93,1,2.62,2.62,0,0,0-.38,0h0l0,.12a8.77,8.77,0,0,1,.2,2,11.11,11.11,0,0,1-.13,1.83,7.77,7.77,0,0,0-.08,1.15,6.74,6.74,0,0,0,.08,1.18,12.92,12.92,0,0,1,.11,1.8,3.83,3.83,0,0,1-4,3.78c-.65,0-1,0-1.3,0S59.32,127,58.57,127Zm1.24-33.18-.09.11a8.12,8.12,0,0,1-.11,1.65,4.76,4.76,0,0,0-.07,1c0,.63,0,1,0,1.27s0,.69,0,1.39,0,.91,0,1.22,0,.72,0,1.45,0,.9,0,1.21,0,.72,0,1.45a11.12,11.12,0,0,1-.1,1.63,8.1,8.1,0,0,0-.06,1c0,.54,0,.81.05,1.08a13.11,13.11,0,0,1,.08,1.58,13.41,13.41,0,0,1-.07,1.56c0,.27-.05.55-.05,1.1a2.71,2.71,0,0,0,.09.77,7.2,7.2,0,0,1,.22,1.9,11.2,11.2,0,0,1-.12,1.7,4.76,4.76,0,0,0-.07,1,3,3,0,0,0,.08.81,7.5,7.5,0,0,1,.2,1.85,8.4,8.4,0,0,1-.11,1.48h.41a12.82,12.82,0,0,1-.11-1.78,11.21,11.21,0,0,1,.13-1.83,7.55,7.55,0,0,0,.08-1.15,4.09,4.09,0,0,0-.1-1,8.65,8.65,0,0,1-.21-2,4.25,4.25,0,0,1,4.11-4.07,3,3,0,0,0,.38,0,7.17,7.17,0,0,1,1-.07,2.61,2.61,0,0,0,1.43-.33l.35-.2a4.84,4.84,0,0,0,1-.67,3.42,3.42,0,0,0,.33-1.61,6.76,6.76,0,0,0-.08-1.09,10,10,0,0,1-.14-1.84,12.83,12.83,0,0,1,.1-1.75,8.21,8.21,0,0,0,.07-1.18,7.55,7.55,0,0,0-.08-1.15,12.58,12.58,0,0,1-.11-1.78,7.08,7.08,0,0,1,.31-2.16,2,2,0,0,0,.12-.77s-.24-.38-.37-.61l-.2-.33a3.44,3.44,0,0,0-1.64-1A6.62,6.62,0,0,1,65,93.44a1.6,1.6,0,0,0-.52-.07l-.12,0a5,5,0,0,1-2.11.44H59.81Zm4.36,21.35h0Zm0-5.63A3.89,3.89,0,0,1,60,105.88c0-.68,0-1,0-1.35s0-.63,0-1.25,0-1.11.06-1.48,0-.56,0-1.12c0-.73,0-1.09,0-1.45s0-.58,0-1.16a3.82,3.82,0,0,1,4-3.75,3.69,3.69,0,0,1,3.79,3.75c0,.59,0,.89,0,1.18s0,.71,0,1.43,0,.94,0,1.26,0,.67,0,1.31v1c0,.46,0,.77,0,1.62A3.73,3.73,0,0,1,64.15,109.55Z"/><path class="cls-2" d="M83.26,91.15a4.17,4.17,0,0,1,2.14.71,4.27,4.27,0,0,1,1.67,1.51,4.61,4.61,0,0,1,.9,2.19c0,1.47-.43,1.47-.43,2.93s.19,1.47.19,2.93-.17,1.46-.17,2.93.22,1.46.22,2.93a5.83,5.83,0,0,1-.67,2.86,5.72,5.72,0,0,1-2.28,1.79,5.15,5.15,0,0,1-2.68.66c-.7,0-.7.09-1.4.09a1.75,1.75,0,0,0-1.61,1.57c0,1.49.31,1.49.31,3s-.21,1.49-.21,3,.19,1.49.19,3A1.38,1.38,0,0,1,78,124.46c-1.39,0-1.39.05-2.78.05a1.31,1.31,0,0,1-1.36-1.33c0-1.34.23-1.34.23-2.67s-.28-1.33-.28-2.66.19-1.33.19-2.66-.31-1.33-.31-2.67.12-1.33.12-2.66-.13-1.33-.13-2.66.16-1.33.16-2.66-.06-1.33-.06-2.66-.07-1.33-.07-2.67,0-1.33,0-2.66.2-1.33.2-2.66A2.63,2.63,0,0,1,74.69,92a2.49,2.49,0,0,1,1.88-.68c1.12,0,1.12,0,2.23,0s1.12-.48,2.23-.48,1.12.28,2.23.28Zm-1.09,12.13c0-1.3-.07-1.3-.07-2.6S82,99.37,82,98.07a1.19,1.19,0,0,0-1.29-1.25,1.33,1.33,0,0,0-1.45,1.25c0,1.3-.07,1.3-.07,2.61s-.1,1.3-.1,2.6,0,1.3,0,2.6c0,.77.88,1.17,1.65,1.17s1.44-.4,1.44-1.17C82.19,104.58,82.18,104.58,82.17,103.28Z"/><path class="cls-11" d="M75.18,127a3.8,3.8,0,0,1-3.86-3.83,9.09,9.09,0,0,1,.15-1.77,4.13,4.13,0,0,0,.08-.9,3,3,0,0,0-.09-.81,8.19,8.19,0,0,1-.19-1.85,11.2,11.2,0,0,1,.12-1.7,4.76,4.76,0,0,0,.07-1,2.43,2.43,0,0,0-.09-.77,7.6,7.6,0,0,1-.22-1.9c0-.77,0-1.19.07-1.55a9.33,9.33,0,0,0,0-1.11,8.87,8.87,0,0,0,0-1.08,13.11,13.11,0,0,1-.08-1.58,11.12,11.12,0,0,1,.1-1.63,8.23,8.23,0,0,0,.06-1c0-.61,0-.91,0-1.21s0-.73,0-1.45,0-.91,0-1.22,0-.72,0-1.45,0-.94,0-1.26,0-.7,0-1.4a11.2,11.2,0,0,1,.12-1.7,4.63,4.63,0,0,0,.08-1,5.07,5.07,0,0,1,1.58-3.65,4.92,4.92,0,0,1,3.65-1.41H78.8l.13,0a4.79,4.79,0,0,1,2.1-.45,6.55,6.55,0,0,1,1.71.21,1.68,1.68,0,0,0,.52.07h0a6.64,6.64,0,0,1,3.4,1,6.74,6.74,0,0,1,2.57,2.42l.15.26a6.15,6.15,0,0,1,1.09,3.19,6.81,6.81,0,0,1-.32,2.17,2.14,2.14,0,0,0-.11.76,7.83,7.83,0,0,0,.07,1.15,12.17,12.17,0,0,1,.12,1.78,14.74,14.74,0,0,1-.1,1.75,8.21,8.21,0,0,0-.07,1.18,5.92,5.92,0,0,0,.08,1.09,11.06,11.06,0,0,1,.14,1.84,8.18,8.18,0,0,1-1,4.11,7,7,0,0,1-2.88,2.52l-.31.18a7.56,7.56,0,0,1-3.93,1,2.62,2.62,0,0,0-.38,0h0l0,.12a8.77,8.77,0,0,1,.2,2,11.11,11.11,0,0,1-.13,1.83,7.77,7.77,0,0,0-.08,1.15,7.91,7.91,0,0,0,.08,1.18,12.92,12.92,0,0,1,.11,1.8A3.83,3.83,0,0,1,78,127c-.65,0-1,0-1.3,0S75.92,127,75.18,127Zm1.23-33.18-.09.11a8.12,8.12,0,0,1-.11,1.65,4.76,4.76,0,0,0-.07,1c0,.63,0,1,0,1.27s0,.69,0,1.39,0,.91,0,1.22,0,.72,0,1.45,0,.9,0,1.21,0,.72,0,1.45a11.12,11.12,0,0,1-.1,1.63,8.1,8.1,0,0,0-.06,1c0,.54,0,.81,0,1.08a13.11,13.11,0,0,1,.08,1.58,13.41,13.41,0,0,1-.07,1.56c0,.27,0,.55,0,1.1a2.76,2.76,0,0,0,.09.77,7.14,7.14,0,0,1,.22,1.9,11.2,11.2,0,0,1-.12,1.7,4.76,4.76,0,0,0-.07,1,3,3,0,0,0,.08.81,7.5,7.5,0,0,1,.2,1.85,8.4,8.4,0,0,1-.11,1.48h.41a12.82,12.82,0,0,1-.11-1.78,11.21,11.21,0,0,1,.13-1.83,6.43,6.43,0,0,0,.08-1.15,4.09,4.09,0,0,0-.1-1,8.65,8.65,0,0,1-.21-2,4.25,4.25,0,0,1,4.11-4.07l.39,0a6.88,6.88,0,0,1,1-.07,2.61,2.61,0,0,0,1.43-.33l.35-.2a4.84,4.84,0,0,0,1-.67,3.42,3.42,0,0,0,.33-1.61,6.76,6.76,0,0,0-.08-1.09,10,10,0,0,1-.14-1.84,12.83,12.83,0,0,1,.1-1.75,8.21,8.21,0,0,0,.07-1.18,6.43,6.43,0,0,0-.08-1.15A12.58,12.58,0,0,1,85,98.49a7.08,7.08,0,0,1,.31-2.16,2,2,0,0,0,.12-.77L85.1,95l-.2-.33a2,2,0,0,0-.75-.6,2,2,0,0,0-.89-.37,6.62,6.62,0,0,1-1.71-.21,1.6,1.6,0,0,0-.52-.07l-.12,0a5,5,0,0,1-2.11.44H76.41Zm4.34,15.72a3.89,3.89,0,0,1-4.15-3.67c0-.68,0-1,0-1.35s0-.63,0-1.25,0-1.11.06-1.48,0-.56,0-1.12c0-.73,0-1.09,0-1.45s0-.58,0-1.16a3.82,3.82,0,0,1,4-3.75,3.69,3.69,0,0,1,3.79,3.75c0,.59,0,.89,0,1.18s0,.71,0,1.43,0,.94,0,1.26,0,.67,0,1.31v1c0,.48,0,.78,0,1.65A3.73,3.73,0,0,1,80.75,109.55Z"/><path class="cls-2" d="M101.59,91.28a2.84,2.84,0,0,1,2.08.53,3,3,0,0,1,.78,2.08c0,1.39-.07,1.39-.07,2.79s-.07,1.39-.07,2.79.12,1.39.12,2.79.17,1.39.17,2.79-.16,1.39-.16,2.78.15,1.4.15,2.79,0,1.4,0,2.79-.06,1.4-.06,2.79.08,1.4.08,2.79-.07,1.39-.07,2.79a3.12,3.12,0,0,1-.89,2.08,2.94,2.94,0,0,1-2.09.61c-1.39,0-1.39.14-2.78.14s-1.4.23-2.79.23-1.4-.36-2.79-.36a2.73,2.73,0,0,1-2-.72,2.77,2.77,0,0,1-.77-2c0-1.4.17-1.4.17-2.79s0-1.4,0-2.79,0-1.4,0-2.79-.09-1.39-.09-2.79-.33-1.39-.33-2.79.08-1.39.08-2.79,0-1.39,0-2.78,0-1.4,0-2.79.11-1.4.11-2.79-.26-1.4-.26-2.79a2.83,2.83,0,0,1,3-3c1.39,0,1.39.47,2.79.47s1.39-.22,2.79-.22,1.39.14,2.78.14Zm-2.7,23.52c-.06-1.39-.1-1.39-.1-2.78s0-1.4,0-2.79.18-1.4.18-2.79,0-1.4,0-2.79,0-1.39,0-2.79S99,99.47,99,98.07a1.38,1.38,0,0,0-1.54-1.21,1.15,1.15,0,0,0-1.28,1.21c0,1.4,0,1.4,0,2.79s0,1.4,0,2.79-.12,1.4-.12,2.79.27,1.39.27,2.79.07,1.39.07,2.79-.06,1.39-.06,2.79-.48,1.39-.48,2.79A1.68,1.68,0,0,0,97.41,119,1.6,1.6,0,0,0,99,117.6C99,116.2,99,116.2,98.89,114.8Z"/><path class="cls-11" d="M96,127.34a7.12,7.12,0,0,1-2-.26,2.44,2.44,0,0,0-.77-.1,5.17,5.17,0,0,1-3.76-1.45,5.24,5.24,0,0,1-1.5-3.75,13.92,13.92,0,0,1,.1-1.71,7,7,0,0,0,.07-1.08V116.2c0-.71,0-1.07,0-1.42s0-.69,0-1.37,0-.93,0-1.24,0-.78,0-1.55a2.72,2.72,0,0,0-.1-.83,7.92,7.92,0,0,1-.23-2c0-.76,0-1.14,0-1.52s0-.63,0-1.27v-1.42c0-.34,0-.68,0-1.36s0-1.11,0-1.48,0-.66,0-1.31,0-1.2.06-1.6a10.86,10.86,0,0,0,0-1.19,3.77,3.77,0,0,0-.09-.93,8.8,8.8,0,0,1-.17-1.86,5.35,5.35,0,0,1,5.49-5.5,6.17,6.17,0,0,1,2.2.37,1.41,1.41,0,0,0,.59.1,5,5,0,0,0,1-.08,10.43,10.43,0,0,1,1.79-.14,14.07,14.07,0,0,1,1.64.08,8,8,0,0,0,1.14.06h0A5.15,5.15,0,0,1,105.44,90,5.44,5.44,0,0,1,107,93.89c0,.75,0,1.13,0,1.51s0,.64,0,1.28,0,1.14,0,1.52,0,.63,0,1.27,0,.89,0,1.19.07.8.07,1.6a9.11,9.11,0,0,0,.06,1.09,11.56,11.56,0,0,1,.11,1.7,13.47,13.47,0,0,1-.1,1.68,9.16,9.16,0,0,0-.06,1.1A7.72,7.72,0,0,0,107,109a13.9,13.9,0,0,1,.09,1.66c0,.67,0,1,0,1.34s0,.72,0,1.45,0,1.14,0,1.51,0,.64,0,1.28,0,.93,0,1.24,0,.78,0,1.55,0,1.15,0,1.53,0,.63,0,1.26a5.54,5.54,0,0,1-1.63,3.85,5.36,5.36,0,0,1-3.85,1.34,8,8,0,0,0-1.14.06,14.07,14.07,0,0,1-1.64.08,4.89,4.89,0,0,0-1,.08A9.39,9.39,0,0,1,96,127.34ZM93,122h.2a7.57,7.57,0,0,1,2,.26,2.4,2.4,0,0,0,.77.1,4.85,4.85,0,0,0,1-.08,9.43,9.43,0,0,1,1.81-.15,8,8,0,0,0,1.14-.06,14.07,14.07,0,0,1,1.64-.08l.41,0a.6.6,0,0,0,.07-.18c0-.76,0-1.14,0-1.52s0-.63,0-1.26,0-.93,0-1.24,0-.78,0-1.55,0-1.13,0-1.51,0-.64,0-1.28,0-1,0-1.33,0-.73,0-1.46a9.76,9.76,0,0,0-.06-1.13,11.8,11.8,0,0,1-.09-1.66,14,14,0,0,1,.09-1.68,7.16,7.16,0,0,0,.07-1.1A6.92,6.92,0,0,0,102,104a13.72,13.72,0,0,1-.1-1.7c0-.6,0-.89-.05-1.19s-.07-.8-.07-1.6,0-1.15,0-1.53,0-.63,0-1.26,0-1.14,0-1.51,0-.64,0-1.28a.41.41,0,0,0,0-.11h-.36A14,14,0,0,1,100,93.7a9.82,9.82,0,0,0-1.14-.06,5,5,0,0,0-1,.08,10.53,10.53,0,0,1-1.79.14,6.13,6.13,0,0,1-2.2-.37,1.44,1.44,0,0,0-.59-.1,1,1,0,0,0-.43.13,3.45,3.45,0,0,0-.06.37,3.77,3.77,0,0,0,.09.93A9.54,9.54,0,0,1,93,96.68c0,.8,0,1.2-.06,1.6a10.59,10.59,0,0,0,0,1.19c0,.74,0,1.11,0,1.47s0,.66,0,1.32,0,1.06,0,1.42V105c0,.76,0,1.14,0,1.52s0,.64,0,1.27a3.08,3.08,0,0,0,.1.83,7.52,7.52,0,0,1,.23,2c0,.62,0,.93,0,1.24s0,.78,0,1.55,0,1.06,0,1.42,0,.68,0,1.37V119a13.92,13.92,0,0,1-.1,1.71,7,7,0,0,0-.07,1.08.63.63,0,0,0,0,.2Zm4.38-.45a4.17,4.17,0,0,1-4.16-3.93,6.47,6.47,0,0,1,.37-2.21,1.25,1.25,0,0,0,.11-.58c0-.75,0-1.13,0-1.5s0-.65,0-1.29,0-1,0-1.27,0-.76,0-1.52a4.34,4.34,0,0,0-.09-.93,8.62,8.62,0,0,1-.18-1.86c0-.8,0-1.2.07-1.6s0-.59,0-1.19,0-1.11,0-1.48,0-.65,0-1.31,0-1.07,0-1.42,0-.68,0-1.37a3.67,3.67,0,0,1,3.78-3.71,3.85,3.85,0,0,1,4,3.71c0,.62,0,.93,0,1.25s0,.77,0,1.54v1.42c0,.34,0,.69,0,1.37v2.79a11.56,11.56,0,0,1-.11,1.7,7.21,7.21,0,0,0-.07,1.09c0,.74,0,1.11,0,1.48s0,.65,0,1.31c0,.83,0,1.12,0,1.57,0,.28,0,.6.06,1.1h0c0,.43,0,.73,0,1,0,.58,0,.91,0,1.94A4.06,4.06,0,0,1,97.41,121.53Z"/><path class="cls-2" d="M121.12,105.43a4.56,4.56,0,0,1-1.3,3.19c-.75.74-1.7.4-1.7,1.45s1.06.61,1.8,1.35a4.82,4.82,0,0,1,1.39,3.29c0,1.41-.16,1.41-.16,2.82s0,1.41,0,2.82-.1,1.41-.1,2.83a1.55,1.55,0,0,1-1.33,1.62c-1.4,0-1.4-.09-2.79-.09a1.37,1.37,0,0,1-1.21-1.53c0-1.49,0-1.49,0-3s-.14-1.49-.14-3-.24-1.49-.24-3a1.2,1.2,0,0,0-1.24-1.33c-.77,0-1.65.61-1.65,1.38,0,1.48.55,1.48.55,3s-.11,1.48-.11,3-.29,1.48-.29,3a1.23,1.23,0,0,1-1.27,1.32c-1.39,0-1.39.12-2.79.12a1.29,1.29,0,0,1-1.21-1.44c0-1.34-.3-1.34-.3-2.67s.31-1.33.31-2.66-.36-1.33-.36-2.66.37-1.33.37-2.67-.39-1.33-.39-2.66-.07-1.33-.07-2.66.26-1.33.26-2.66,0-1.33,0-2.66,0-1.33,0-2.66,0-1.34,0-2.67-.07-1.33-.07-2.66a2.94,2.94,0,0,1,.91-2,3.06,3.06,0,0,1,2-1c1.11,0,1.11,0,2.23,0s1.12.32,2.23.32,1.12.13,2.23.13c.82,0,1.7-.25,2.35.13a4.84,4.84,0,0,1,1.66,1.76,4.74,4.74,0,0,1,.57,2.31c0,1.24.07,1.24.07,2.47s-.13,1.23-.13,2.47,0,1.23,0,2.46v2.47Zm-5.63.46c0-1.31-.17-1.31-.16-2.61s.31-1.3.31-2.6.13-1.3.13-2.6c0-.77-.88-1.16-1.65-1.16a1.08,1.08,0,0,0-1.23,1.16c0,1.3,0,1.3,0,2.6s.07,1.3.07,2.6-.13,1.3-.13,2.61a1.33,1.33,0,0,0,1.34,1.37,1.35,1.35,0,0,0,1.37-1.37Z"/><path class="cls-11" d="M119.7,127.3c-.77,0-1.16,0-1.55,0s-.62,0-1.24,0a3.55,3.55,0,0,1-2.81-1.38,3.74,3.74,0,0,1-2.77,1.17c-.59,0-.88,0-1.18,0s-.8.07-1.61.07a3.79,3.79,0,0,1-3.71-3.94,2.86,2.86,0,0,0-.09-.79,7.53,7.53,0,0,1-.21-1.88,7.11,7.11,0,0,1,.22-1.89,2.76,2.76,0,0,0,.09-.77,1.91,1.91,0,0,0-.1-.68,6.86,6.86,0,0,1-.26-2,6.52,6.52,0,0,1,.28-2,1.94,1.94,0,0,0,.09-.67,1.72,1.72,0,0,0-.09-.62,6.45,6.45,0,0,1-.3-2c0-.6,0-.89,0-1.19s0-.74,0-1.47a8.29,8.29,0,0,1,.18-1.83,3.63,3.63,0,0,0,.08-.83c0-.68,0-1,0-1.35s0-.66,0-1.31,0-1,0-1.31,0-.68,0-1.35,0-1,0-1.26,0-.7,0-1.41,0-.89,0-1.18,0-.74,0-1.48a5.85,5.85,0,0,1,5.4-5.51l1.19,0h1a6.24,6.24,0,0,1,1.79.25,1.1,1.1,0,0,0,.44.07,10.16,10.16,0,0,1,1.41.08,6.78,6.78,0,0,0,.82,0l.5,0a5,5,0,0,1,3.11.5A7.37,7.37,0,0,1,122.8,92a7.16,7.16,0,0,1,.91,3.56c0,.55,0,.83,0,1.1s0,.69,0,1.37a11.56,11.56,0,0,1-.08,1.48,9.7,9.7,0,0,0,0,1c0,.65,0,1,0,1.3s0,.58,0,1.16v2.47A7.08,7.08,0,0,1,122,110a7.33,7.33,0,0,1,1.83,4.75,14.52,14.52,0,0,1-.09,1.69,7.62,7.62,0,0,0-.07,1.13c0,.72,0,1.08,0,1.44s0,.69,0,1.38,0,1.2,0,1.6a11.46,11.46,0,0,0,0,1.23A4,4,0,0,1,119.7,127.3Zm-1.49-5.06.25,0h.09c0-.26,0-.47,0-.68s0-.61,0-1.23,0-1.08,0-1.44,0-.69,0-1.38a12.19,12.19,0,0,1,.1-1.7,9.42,9.42,0,0,0,.06-1.12,2.31,2.31,0,0,0-.53-1.38h0c-.2-.06-.38-.12-.55-.19a4.09,4.09,0,0,1,.15,1.12,5.84,5.84,0,0,0,.09,1.09,10.29,10.29,0,0,1,.15,1.89,11.55,11.55,0,0,0,.06,1.25,15.63,15.63,0,0,1,.08,1.72c0,.76,0,1.14,0,1.52Zm-8.14-28.86a1.86,1.86,0,0,0-.35.29.87.87,0,0,0-.19.27c0,.54,0,.84,0,1.14s0,.73,0,1.47,0,.94,0,1.26,0,.7,0,1.41,0,1,0,1.3,0,.68,0,1.36,0,1,0,1.35,0,.65,0,1.31a8.1,8.1,0,0,1-.18,1.82,3.72,3.72,0,0,0-.08.84c0,.6,0,.9,0,1.2s0,.73,0,1.46a1.74,1.74,0,0,0,.09.63,6.43,6.43,0,0,1,.3,2,6.65,6.65,0,0,1-.28,2,1.85,1.85,0,0,0-.09.66,2,2,0,0,0,.09.68,6.8,6.8,0,0,1,.27,2,7.67,7.67,0,0,1-.22,1.9,2.63,2.63,0,0,0-.09.76,2.73,2.73,0,0,0,.09.78c0,.21.1.46.14.78l.4,0c0-.33.09-.58.13-.81a4.22,4.22,0,0,0,.1-1c0-.84,0-1.25.06-1.67a12.67,12.67,0,0,0,0-1.29,1.3,1.3,0,0,0-.12-.62,6,6,0,0,1-.43-2.34,4.11,4.11,0,0,1,4.1-3.88,3.75,3.75,0,0,1,1.63.33,3.42,3.42,0,0,1-.06-.68,3.22,3.22,0,0,1,0-.63,3.87,3.87,0,0,1-1.55.32,3.82,3.82,0,0,1-3.84-3.87,12.45,12.45,0,0,1,.08-1.54c0-.27,0-.53,0-1.07s0-.88,0-1.17,0-.72,0-1.43,0-1,0-1.39,0-.61,0-1.21a3.58,3.58,0,0,1,3.73-3.66c2.37,0,4.15,1.57,4.15,3.66a12.65,12.65,0,0,1-.08,1.55c0,.26,0,.52,0,1.05a7.19,7.19,0,0,1-.22,1.88,2.58,2.58,0,0,0-.09.74,5,5,0,0,0,.06,1,12.39,12.39,0,0,1,.1,1.61,4,4,0,0,1-.12,1l.15-.07.1,0a2,2,0,0,0,.5-1.34V103c0-.65,0-1,0-1.3s0-.58,0-1.16a11.62,11.62,0,0,1,.08-1.49,9.46,9.46,0,0,0,0-1c0-.55,0-.82,0-1.1s0-.68,0-1.37a2.24,2.24,0,0,0-.24-1.06,2.82,2.82,0,0,0-.57-.72l-.35,0c-.31,0-.62,0-.92,0a12.41,12.41,0,0,1-1.41-.08,5.08,5.08,0,0,0-.82,0,6.24,6.24,0,0,1-1.79-.25,1.1,1.1,0,0,0-.44-.07H111Z"/><path class="cls-2" d="M137.13,92.5c0,1.39-.09,1.39-.09,2.78,0,.77-.61,1.14-1.38,1.14s-.7.26-1.39.26A1.26,1.26,0,0,0,133,98.07c0,1.4,0,1.4,0,2.79s-.07,1.4-.07,2.79.22,1.4.22,2.79-.46,1.4-.46,2.79.29,1.4.29,2.79-.05,1.39-.05,2.79-.29,1.39-.29,2.79.43,1.39.43,2.79,0,1.39,0,2.78c0,.77-.77,1.19-1.54,1.19h-2.79c-.77,0-1.47-.41-1.47-1.18,0-1.39-.08-1.39-.08-2.78s.41-1.4.41-2.79-.36-1.4-.36-2.8.29-1.39.29-2.78-.12-1.4-.12-2.79.1-1.4.1-2.79-.4-1.39-.4-2.79.4-1.39.4-2.79-.21-1.39-.21-2.79a1.54,1.54,0,0,0-1.35-1.59c-.7,0-.7.14-1.4.14a1.44,1.44,0,0,1-1.5-1.34c0-1.39.27-1.39.27-2.78a1.16,1.16,0,0,1,1.23-1.27c1.4,0,1.4-.34,2.79-.34s1.4.47,2.79.47h2.79c1.4,0,1.4-.15,2.79-.15A1.37,1.37,0,0,1,137.13,92.5Z"/><path class="cls-11" d="M131.48,126.86h-2.79a3.75,3.75,0,0,1-4-3.68c0-.62,0-.93,0-1.24s0-.77,0-1.54a6.75,6.75,0,0,1,.31-2.11,1.77,1.77,0,0,0,.1-.68,2.33,2.33,0,0,0-.1-.76,7.28,7.28,0,0,1-.26-2,8.11,8.11,0,0,1,.2-1.91A3.36,3.36,0,0,0,125,112a10.3,10.3,0,0,0,0-1.17,14.4,14.4,0,0,1-.07-1.62c0-.79,0-1.18,0-1.57s0-.61,0-1.22a1.89,1.89,0,0,0-.11-.71,7,7,0,0,1-.29-2.08,7.09,7.09,0,0,1,.29-2.09,1.81,1.81,0,0,0,.11-.7,6.07,6.07,0,0,0-.08-1c0-.2-.06-.43-.09-.72h-.29a3.93,3.93,0,0,1-4-3.84,8.6,8.6,0,0,1,.18-1.86,3.68,3.68,0,0,0,.09-.92,3.67,3.67,0,0,1,3.73-3.77,2.63,2.63,0,0,0,.81-.1,7.59,7.59,0,0,1,2-.24,6.13,6.13,0,0,1,2.2.37,1.29,1.29,0,0,0,.59.1h2.79A7.91,7.91,0,0,0,134,88.8a13.9,13.9,0,0,1,1.66-.09,3.84,3.84,0,0,1,4,3.79c0,.78,0,1.17,0,1.56s0,.61,0,1.22a3.63,3.63,0,0,1-3.79,3.64l-.22.07c0,.22,0,.4,0,.58s0,.65,0,1.29,0,1.14,0,1.52,0,.64,0,1.27a5.19,5.19,0,0,0,.08,1,10.29,10.29,0,0,1,.14,1.78,6.32,6.32,0,0,1-.36,2.18,1.48,1.48,0,0,0-.1.61,3.39,3.39,0,0,0,.09.88,8,8,0,0,1,.2,1.91c0,.74,0,1.11,0,1.48s0,.65,0,1.31a8.67,8.67,0,0,1-.19,1.9,3.47,3.47,0,0,0-.1.89,1.69,1.69,0,0,0,.11.66,6.54,6.54,0,0,1,.32,2.13c0,.73,0,1.09,0,1.46s0,.66,0,1.32A3.83,3.83,0,0,1,131.48,126.86Zm-1.79-5h.85v-.15c0-.33,0-.66,0-1.32a1.75,1.75,0,0,0-.1-.67,6.45,6.45,0,0,1-.33-2.12,8.53,8.53,0,0,1,.2-1.91,3.39,3.39,0,0,0,.09-.88c0-.74,0-1.11,0-1.48s0-.65,0-1.31a3.39,3.39,0,0,0-.09-.88,8,8,0,0,1-.2-1.91,6.31,6.31,0,0,1,.35-2.17,1.4,1.4,0,0,0,.11-.62,5,5,0,0,0-.08-1,9.48,9.48,0,0,1-.14-1.79c0-.76,0-1.14,0-1.52s0-.63,0-1.27,0-1.12,0-1.49,0-.65,0-1.3a3.73,3.73,0,0,1,3.63-3.89l.4-.13a2.46,2.46,0,0,1,0-.28h-.05a12.09,12.09,0,0,1-1.67.09h-2.79a6.38,6.38,0,0,1-2.19-.36,1.34,1.34,0,0,0-.6-.11,2.56,2.56,0,0,0-.8.1c-.21.05-.46.11-.78.16,0,.12,0,.23,0,.34h.24a4,4,0,0,1,3.85,4.09,5.2,5.2,0,0,0,.08,1,11.58,11.58,0,0,1,.13,1.76,6.72,6.72,0,0,1-.3,2.09,1.88,1.88,0,0,0-.1.7,1.9,1.9,0,0,0,.1.71,6.91,6.91,0,0,1,.3,2.08c0,.79,0,1.18-.06,1.57s0,.61,0,1.22a10.56,10.56,0,0,0,0,1.17c0,.38.07.81.07,1.62a8,8,0,0,1-.2,1.91,3.36,3.36,0,0,0-.09.87,2.44,2.44,0,0,0,.1.77,7.15,7.15,0,0,1,.26,2,6.49,6.49,0,0,1-.31,2.1,2,2,0,0,0-.1.69c0,.62,0,.93,0,1.24C129.68,121.7,129.69,121.78,129.69,121.86Zm-1,0Z"/><path class="cls-2" d="M33.74,104.22c-.77,0-1.44-.36-1.44-1.13,0-1.25,0-1.25,0-2.51s-.18-1.25-.18-2.51A1.08,1.08,0,0,0,31,96.87a1.17,1.17,0,0,0-1.31,1.2c0,1.31-.29,1.31-.29,2.61s.13,1.3.13,2.6.29,1.3.29,2.6A1.1,1.1,0,0,0,31,107.12c.7,0,.7-.06,1.4-.06a5.83,5.83,0,0,1,2.85.85,5.9,5.9,0,0,1,2.16,2,5.77,5.77,0,0,1,.3,2.9c0,1.48.44,1.48.44,3s-.34,1.49-.34,3,.29,1.48.29,3a3.09,3.09,0,0,1-.84,2.08,3,3,0,0,1-2.08.66c-1.39,0-1.39.13-2.79.13s-1.39-.09-2.79-.09-1.39.16-2.78.16a3.07,3.07,0,0,1-2.08-.87,2.9,2.9,0,0,1-.63-2.07c0-1.18-.22-1.18-.22-2.37S24,118.22,24,117a1.55,1.55,0,0,1,1.42-1.54c1.4,0,1.4.29,2.79.29A1.36,1.36,0,0,1,29.64,117c0,.28.09.28.09.56A1.13,1.13,0,0,0,31,118.84c.77,0,1.6-.47,1.6-1.24,0-1.68-.17-1.68-.17-3.35A1.57,1.57,0,0,0,31,112.7c-.7,0-.7.15-1.4.15a5.89,5.89,0,0,1-2.89-.55,5.94,5.94,0,0,1-2-2.21,5.62,5.62,0,0,1-.64-2.81c0-1.34-.21-1.34-.21-2.68s.15-1.34.15-2.68.14-1.34.14-2.67.06-1.34.06-2.68-.45-1.34-.45-2.68A3,3,0,0,1,24.83,92a3,3,0,0,1,1.94-1.13c1.39,0,1.39.47,2.79.47s1.39-.11,2.78-.11h2.79a3,3,0,0,1,2.13.58,3.18,3.18,0,0,1,.87,2.13c0,1.53-.08,1.53-.08,3.07s-.37,1.53-.37,3.07.29,1.53.29,3.06c0,.77-.67,1.13-1.44,1.13Z"/><path class="cls-2" d="M53.14,91.2a1.3,1.3,0,0,1,1.38,1.3c0,1.33-.18,1.33-.18,2.66s.27,1.33.27,2.66-.28,1.33-.28,2.66.23,1.34.23,2.67.11,1.33.11,2.66.12,1.33.12,2.66-.38,1.33-.38,2.66.2,1.33.2,2.67-.15,1.33-.15,2.66-.09,1.33-.09,2.66.06,1.33.06,2.66a2.54,2.54,0,0,1-.82,1.86,2.43,2.43,0,0,1-1.86.72c-1.4,0-1.4.25-2.79.25s-1.4-.21-2.79-.21-1.4.08-2.79.08a2.93,2.93,0,0,1-2.1-.6,3,3,0,0,1-.57-2.1c0-1.33-.14-1.33-.14-2.66s0-1.33,0-2.66.24-1.34.24-2.67,0-1.33,0-2.66-.34-1.33-.34-2.66.23-1.33.23-2.66,0-1.34,0-2.67,0-1.33,0-2.66-.11-1.33-.11-2.66-.06-1.33-.06-2.66-.16-1.33-.16-2.66c0-.77.83-1.22,1.6-1.22,1.39,0,1.39-.21,2.79-.21A1.31,1.31,0,0,1,46,92.5c0,1.39-.07,1.39-.07,2.79s.38,1.39.38,2.79-.22,1.39-.22,2.78.11,1.4.11,2.79.08,1.4.08,2.79-.06,1.4-.06,2.79-.33,1.4-.33,2.79.11,1.39.11,2.79.13,1.39.13,2.79a1.41,1.41,0,0,0,2.81,0c0-1.4-.06-1.4-.06-2.79s.24-1.4.24-2.79,0-1.4,0-2.79-.48-1.4-.48-2.79.15-1.4.15-2.79.21-1.39.21-2.79-.14-1.39-.14-2.79-.19-1.39-.19-2.79.37-1.39.37-2.78a1.3,1.3,0,0,1,1.25-1.42c1.4,0,1.4.12,2.79.12Z"/><path class="cls-2" d="M66.66,91.15a4.17,4.17,0,0,1,2.14.71,4.27,4.27,0,0,1,1.67,1.51,4.61,4.61,0,0,1,.9,2.19c0,1.47-.43,1.47-.43,2.93s.19,1.47.19,2.93-.17,1.46-.17,2.93.22,1.46.22,2.93a5.83,5.83,0,0,1-.67,2.86,5.72,5.72,0,0,1-2.28,1.79,5.15,5.15,0,0,1-2.68.66c-.7,0-.7.09-1.4.09a1.75,1.75,0,0,0-1.61,1.57c0,1.49.31,1.49.31,3s-.21,1.49-.21,3,.19,1.49.19,3a1.38,1.38,0,0,1-1.47,1.28c-1.39,0-1.39.05-2.79.05a1.3,1.3,0,0,1-1.35-1.33c0-1.34.23-1.34.23-2.67s-.28-1.33-.28-2.66.19-1.33.19-2.66-.31-1.33-.31-2.67.12-1.33.12-2.66S57,108.53,57,107.2s.16-1.33.16-2.66-.07-1.33-.07-2.66-.06-1.33-.06-2.67,0-1.33,0-2.66.2-1.33.2-2.66A2.63,2.63,0,0,1,58.09,92,2.49,2.49,0,0,1,60,91.33c1.12,0,1.12,0,2.23,0s1.12-.48,2.23-.48,1.12.28,2.23.28Zm-1.09,12.13c0-1.3-.07-1.3-.07-2.6s-.06-1.31-.06-2.61a1.19,1.19,0,0,0-1.29-1.25,1.33,1.33,0,0,0-1.45,1.25c0,1.3-.07,1.3-.07,2.61s-.1,1.3-.1,2.6,0,1.3,0,2.6c0,.77.88,1.17,1.65,1.17s1.44-.4,1.44-1.17C65.59,104.58,65.58,104.58,65.57,103.28Z"/><path class="cls-2" d="M83.26,91.15a4.17,4.17,0,0,1,2.14.71,4.27,4.27,0,0,1,1.67,1.51,4.61,4.61,0,0,1,.9,2.19c0,1.47-.43,1.47-.43,2.93s.19,1.47.19,2.93-.17,1.46-.17,2.93.22,1.46.22,2.93a5.83,5.83,0,0,1-.67,2.86,5.72,5.72,0,0,1-2.28,1.79,5.15,5.15,0,0,1-2.68.66c-.7,0-.7.09-1.4.09a1.75,1.75,0,0,0-1.61,1.57c0,1.49.31,1.49.31,3s-.21,1.49-.21,3,.19,1.49.19,3A1.38,1.38,0,0,1,78,124.46c-1.39,0-1.39.05-2.78.05a1.31,1.31,0,0,1-1.36-1.33c0-1.34.23-1.34.23-2.67s-.28-1.33-.28-2.66.19-1.33.19-2.66-.31-1.33-.31-2.67.12-1.33.12-2.66-.13-1.33-.13-2.66.16-1.33.16-2.66-.06-1.33-.06-2.66-.07-1.33-.07-2.67,0-1.33,0-2.66.2-1.33.2-2.66A2.63,2.63,0,0,1,74.69,92a2.49,2.49,0,0,1,1.88-.68c1.12,0,1.12,0,2.23,0s1.12-.48,2.23-.48,1.12.28,2.23.28Zm-1.09,12.13c0-1.3-.07-1.3-.07-2.6S82,99.37,82,98.07a1.19,1.19,0,0,0-1.29-1.25,1.33,1.33,0,0,0-1.45,1.25c0,1.3-.07,1.3-.07,2.61s-.1,1.3-.1,2.6,0,1.3,0,2.6c0,.77.88,1.17,1.65,1.17s1.44-.4,1.44-1.17C82.19,104.58,82.18,104.58,82.17,103.28Z"/><path class="cls-2" d="M101.59,91.28a2.84,2.84,0,0,1,2.08.53,3,3,0,0,1,.78,2.08c0,1.39-.07,1.39-.07,2.79s-.07,1.39-.07,2.79.12,1.39.12,2.79.17,1.39.17,2.79-.16,1.39-.16,2.78.15,1.4.15,2.79,0,1.4,0,2.79-.06,1.4-.06,2.79.08,1.4.08,2.79-.07,1.39-.07,2.79a3.12,3.12,0,0,1-.89,2.08,2.94,2.94,0,0,1-2.09.61c-1.39,0-1.39.14-2.78.14s-1.4.23-2.79.23-1.4-.36-2.79-.36a2.73,2.73,0,0,1-2-.72,2.77,2.77,0,0,1-.77-2c0-1.4.17-1.4.17-2.79s0-1.4,0-2.79,0-1.4,0-2.79-.09-1.39-.09-2.79-.33-1.39-.33-2.79.08-1.39.08-2.79,0-1.39,0-2.78,0-1.4,0-2.79.11-1.4.11-2.79-.26-1.4-.26-2.79a2.83,2.83,0,0,1,3-3c1.39,0,1.39.47,2.79.47s1.39-.22,2.79-.22,1.39.14,2.78.14Zm-2.7,23.52c-.06-1.39-.1-1.39-.1-2.78s0-1.4,0-2.79.18-1.4.18-2.79,0-1.4,0-2.79,0-1.39,0-2.79S99,99.47,99,98.07a1.38,1.38,0,0,0-1.54-1.21,1.15,1.15,0,0,0-1.28,1.21c0,1.4,0,1.4,0,2.79s0,1.4,0,2.79-.12,1.4-.12,2.79.27,1.39.27,2.79.07,1.39.07,2.79-.06,1.39-.06,2.79-.48,1.39-.48,2.79A1.68,1.68,0,0,0,97.41,119,1.6,1.6,0,0,0,99,117.6C99,116.2,99,116.2,98.89,114.8Z"/><path class="cls-2" d="M121.12,105.43a4.56,4.56,0,0,1-1.3,3.19c-.75.74-1.7.4-1.7,1.45s1.06.61,1.8,1.35a4.82,4.82,0,0,1,1.39,3.29c0,1.41-.16,1.41-.16,2.82s0,1.41,0,2.82-.1,1.41-.1,2.83a1.55,1.55,0,0,1-1.33,1.62c-1.4,0-1.4-.09-2.79-.09a1.37,1.37,0,0,1-1.21-1.53c0-1.49,0-1.49,0-3s-.14-1.49-.14-3-.24-1.49-.24-3a1.2,1.2,0,0,0-1.24-1.33c-.77,0-1.65.61-1.65,1.38,0,1.48.55,1.48.55,3s-.11,1.48-.11,3-.29,1.48-.29,3a1.23,1.23,0,0,1-1.27,1.32c-1.39,0-1.39.12-2.79.12a1.29,1.29,0,0,1-1.21-1.44c0-1.34-.3-1.34-.3-2.67s.31-1.33.31-2.66-.36-1.33-.36-2.66.37-1.33.37-2.67-.39-1.33-.39-2.66-.07-1.33-.07-2.66.26-1.33.26-2.66,0-1.33,0-2.66,0-1.33,0-2.66,0-1.34,0-2.67-.07-1.33-.07-2.66a2.94,2.94,0,0,1,.91-2,3.06,3.06,0,0,1,2-1c1.11,0,1.11,0,2.23,0s1.12.32,2.23.32,1.12.13,2.23.13c.82,0,1.7-.25,2.35.13a4.84,4.84,0,0,1,1.66,1.76,4.74,4.74,0,0,1,.57,2.31c0,1.24.07,1.24.07,2.47s-.13,1.23-.13,2.47,0,1.23,0,2.46v2.47Zm-5.63.46c0-1.31-.17-1.31-.16-2.61s.31-1.3.31-2.6.13-1.3.13-2.6c0-.77-.88-1.16-1.65-1.16a1.08,1.08,0,0,0-1.23,1.16c0,1.3,0,1.3,0,2.6s.07,1.3.07,2.6-.13,1.3-.13,2.61a1.33,1.33,0,0,0,1.34,1.37,1.35,1.35,0,0,0,1.37-1.37Z"/><path class="cls-2" d="M137.13,92.5c0,1.39-.09,1.39-.09,2.78,0,.77-.61,1.14-1.38,1.14s-.7.26-1.39.26A1.26,1.26,0,0,0,133,98.07c0,1.4,0,1.4,0,2.79s-.07,1.4-.07,2.79.22,1.4.22,2.79-.46,1.4-.46,2.79.29,1.4.29,2.79-.05,1.39-.05,2.79-.29,1.39-.29,2.79.43,1.39.43,2.79,0,1.39,0,2.78c0,.77-.77,1.19-1.54,1.19h-2.79c-.77,0-1.47-.41-1.47-1.18,0-1.39-.08-1.39-.08-2.78s.41-1.4.41-2.79-.36-1.4-.36-2.8.29-1.39.29-2.78-.12-1.4-.12-2.79.1-1.4.1-2.79-.4-1.39-.4-2.79.4-1.39.4-2.79-.21-1.39-.21-2.79a1.54,1.54,0,0,0-1.35-1.59c-.7,0-.7.14-1.4.14a1.44,1.44,0,0,1-1.5-1.34c0-1.39.27-1.39.27-2.78a1.16,1.16,0,0,1,1.23-1.27c1.4,0,1.4-.34,2.79-.34s1.4.47,2.79.47h2.79c1.4,0,1.4-.15,2.79-.15A1.37,1.37,0,0,1,137.13,92.5Z"/></svg>